<?xml version="1.0" encoding="UTF-8" standalone="no"?>

<svg
   version="1.1"
   id="svg1109"
   width="13411.334"
   height="3336.6309"
   viewBox="0 0 13411.334 3336.6309"
   xmlns="http://www.w3.org/2000/svg"
   xmlns:svg="http://www.w3.org/2000/svg">
  <defs
     id="defs1113" />
  <g
     id="g1115"
     transform="translate(-1858.682,-16390.148)">
    <g
       id="g9766"
       transform="translate(-8631.7482,3748.6475)">
      <path
         style="fill:#73be55;fill-opacity:0.913725;stroke:#73be55;stroke-width:6.2929;stroke-dasharray:none"
         d="m 10493.707,15933.879 c 2.607,-10.298 148.347,-427.92 323.862,-928.052 175.519,-500.131 322.165,-918.149 325.876,-928.926 4.675,-13.562 38.133,66.6 108.696,260.422 56.068,154.01 105.207,275.96 109.191,270.998 3.988,-4.96 153.723,-450.516 332.745,-990.123 179.02,-539.606 328.183,-977.69 331.468,-973.52 3.287,4.17 203.159,602.129 444.161,1328.791 241.001,726.662 441.325,1327.674 445.157,1335.577 4.564,9.41 39.511,-39.851 101.172,-142.616 l 94.195,-156.991 223.942,466.291 c 123.17,256.464 223.941,468.674 223.941,471.582 0,2.91 -690.556,5.288 -1534.571,5.288 -1456.706,0 -1534.332,-0.949 -1529.835,-18.721 z"
         id="path9555" />
      <g
         id="g9735"
         transform="matrix(1.6034459,0,0,1.5937976,-8639.3707,-9485.6651)"
         style="stroke-width:0.625542">
        <g
           id="g9587"
           transform="matrix(2.1987186,0,0,2.377571,-15095.743,-14025.742)"
           style="stroke-width:0.273593">
          <path
             style="fill:#73be55;fill-opacity:0.913725;stroke:#73be55;stroke-width:1.72169;stroke-dasharray:none"
             d="m 13763.068,12437.261 c -13.128,-18.745 -7.397,-36.777 19.399,-61.043 36.155,-32.742 45.587,-42.369 45.587,-46.535 0,-8.125 -12.59,-28.609 -24.319,-39.566 -6.422,-6 -11.676,-14.268 -11.676,-18.373 0,-4.106 -1.388,-8.853 -3.084,-10.549 -4.795,-4.795 -14.778,-35.643 -14.777,-45.661 0,-17.633 6.339,-22.12 21.662,-15.336 9.548,4.226 18.746,15.124 29.933,35.465 8.881,16.152 20.175,34.428 25.096,40.615 l 8.947,11.249 31.676,-33.747 c 17.421,-18.561 44.009,-48.933 59.083,-67.493 15.075,-18.561 29.692,-35.772 32.483,-38.247 2.79,-2.474 10.798,-12.092 17.797,-21.372 13.828,-18.336 16.559,-19.18 35.662,-11.016 l 12.758,5.451 -38.805,47.215 c -21.342,25.968 -48.343,58.267 -60,71.772 -11.659,13.506 -29.733,35.536 -40.165,48.956 -21.843,28.1 -20.997,34.006 7.573,52.913 9.607,6.358 18.477,14.189 19.71,17.403 2.609,6.8 41.481,17.04 59.983,15.802 33.996,-2.276 41.937,-0.29 41.937,10.487 0,15.406 -26.672,25.613 -66.933,25.613 -36.372,0 -51.526,-6.081 -87.735,-35.211 -13.452,-10.821 -25.076,-16.825 -30.055,-15.524 -4.466,1.169 -17.705,14.324 -29.419,29.236 -18.662,23.754 -20.613,28.21 -15.753,35.992 6.54,10.472 7.49,9.5 -15.846,16.192 -23.762,6.815 -22.531,7.003 -30.719,-4.688 z"
             id="path9575" />
          <path
             id="path9577"
             style="fill:#73be55;fill-opacity:0.913725;stroke:#73be55;stroke-width:1.72169;stroke-dasharray:none"
             d="m 14785.892,12140.382 c -2.324,-0.03 -4.424,0.05 -6.205,0.262 -11.596,1.396 -69.269,30.964 -80.991,41.523 -4.949,4.458 -19.121,16.595 -31.495,26.972 -12.373,10.379 -24.523,22.304 -26.998,26.502 -2.474,4.198 -11.839,16.58 -20.811,27.512 -18.116,22.073 -30.932,45.08 -30.932,55.533 0,12.421 -83.685,47.715 -120.082,50.643 -20.096,1.619 -24.044,0.582 -28.342,-7.451 -7.201,-13.455 -7.406,-55.91 -0.446,-92.35 13.86,-72.562 11.013,-104.828 -9.898,-112.182 -25.133,-8.839 -48.781,15.711 -38.835,40.316 6.364,15.746 6.136,48.969 -0.682,98.862 -6.409,46.899 -3.734,72.684 9.669,93.203 16.104,24.657 23.993,27.49 60.652,21.768 17.175,-2.681 34.264,-5.112 37.976,-5.402 3.712,-0.288 9.786,-2.999 13.498,-6.027 9.074,-7.4 67.316,-38.298 72.194,-38.298 2.131,0 7.842,8.972 12.692,19.936 5.558,12.564 15.203,24.112 26.085,31.232 19.305,12.632 36.284,14.195 76.055,6.995 45.269,-8.197 105.477,-42.341 125.007,-70.892 16.897,-24.702 35.483,-87.959 40.548,-138.005 1.408,-13.898 -0.876,-22.098 -10.024,-35.996 -6.516,-9.899 -14.885,-20.436 -18.597,-23.413 -6.479,-5.199 -33.771,-11.018 -50.038,-11.243 z m -6.859,49.666 c 4.168,-0.534 6.242,1.467 9.919,5.529 4.164,4.603 14.666,10.708 23.334,13.569 l 15.761,5.203 -2.763,23.092 c -4.888,40.908 -28.197,89.98 -52.162,109.817 -3.813,3.156 -18.069,11.511 -31.68,18.565 -33.674,17.455 -47.432,19.394 -83.284,11.746 -15.466,-3.299 -25.525,-25.836 -20.841,-46.69 9.364,-41.674 66.544,-104.569 119.231,-131.145 12.054,-6.081 18.318,-9.152 22.485,-9.686 z" />
          <path
             style="fill:#73be55;fill-opacity:0.913725;stroke:#73be55;stroke-width:1.72169;stroke-dasharray:none"
             d="m 15639.303,12445.555 c -24.134,-25.592 -31.284,-62.336 -28.137,-144.602 1.446,-37.791 1.528,-69.811 0.184,-71.155 -1.344,-1.346 -11.287,1.85 -22.093,7.1 -17.297,8.404 -21.011,8.817 -31.031,3.455 -19.295,-10.327 -15.074,-25.047 10.965,-38.242 12.292,-6.229 24.655,-11.325 27.473,-11.325 2.818,0 11.349,-5.238 18.957,-11.64 9.99,-8.406 17.498,-11.104 27.018,-9.706 7.251,1.064 26.626,-1.689 43.059,-6.12 40.144,-10.823 124.222,-19.155 166.147,-16.464 31.574,2.026 35.062,3.272 47.221,16.881 14.869,16.643 14.626,25.108 -1.82,63.34 -9.479,22.031 -21.964,34.731 -111.088,112.99 -21.114,18.541 -22.948,25.59 -9.76,37.524 8.784,7.951 11.388,7.954 79.865,0.09 38.931,-4.467 78.883,-8.765 88.782,-9.55 9.899,-0.786 41.984,-3.462 71.3,-5.949 59.326,-5.031 80.587,-2.955 78.52,7.668 -1.592,8.185 -35.748,15.862 -113.824,25.583 -29.697,3.698 -60.422,8.586 -68.278,10.863 -7.857,2.276 -15.226,3.198 -16.375,2.048 -1.151,-1.15 -13.958,0.791 -28.46,4.313 -95.23,23.126 -161.878,1.12 -152.389,-50.316 3.708,-20.09 11.707,-28.996 63.027,-70.158 52.212,-41.88 77.052,-67.068 80.776,-81.91 3.635,-14.48 -1.038,-17.893 -29.943,-21.868 -31.288,-4.304 -133.054,10.489 -156.915,22.81 -15.095,7.794 -21.829,37.579 -22.846,101.053 -0.816,50.86 7.18,89.332 22.496,108.248 6.925,8.552 7.574,12.901 3.774,25.283 -6.018,19.608 -17.951,19.526 -36.604,-0.251 z"
             id="path9579" />
          <path
             style="fill:#73be55;fill-opacity:0.913725;stroke:#73be55;stroke-width:1.72169;stroke-dasharray:none"
             d="m 14060.647,12439.386 c -8.896,-19.266 -9.87,-28.683 -9.87,-95.544 0,-70.598 -0.434,-74.253 -8.999,-75.887 -18.402,-3.512 -20.754,-22.013 -5.624,-44.238 5.568,-8.179 11.664,-14.885 13.547,-14.902 1.883,-0.01 12.007,-3.92 22.497,-8.672 19.619,-8.888 97.386,-31.912 113.753,-33.677 5.054,-0.545 11.326,-2.312 13.938,-3.926 2.612,-1.615 22.774,-3.237 44.805,-3.606 43.813,-0.732 72.956,7.201 99.672,27.133 11.832,8.829 14.623,14.044 14.623,27.325 0,32.479 -51.519,80.802 -116.986,109.729 -16.085,7.108 -42.863,19.723 -59.505,28.036 -42.596,21.273 -61.98,19.661 -61.98,-5.155 0,-3.318 7.593,-8.486 16.873,-11.483 32.259,-10.423 142.515,-69.583 157.523,-84.523 31.745,-31.603 8.694,-50.001 -62.822,-50.143 -19.063,-0.03 -39.311,1.729 -44.995,3.926 -5.685,2.195 -21.472,6.503 -35.083,9.573 -38.764,8.741 -47.557,15.676 -53.488,42.183 -6.018,26.901 -6.916,133.863 -1.288,153.48 3.54,12.337 5.348,13.377 21.012,12.093 16.94,-1.389 24.548,3.617 24.696,16.249 0.09,8.357 -35.092,23.187 -55.302,23.304 -16.077,0.09 -17.729,-1.209 -26.997,-21.275 z"
             id="path9581" />
          <path
             style="fill:#73be55;fill-opacity:0.913725;stroke:#73be55;stroke-width:1.72169;stroke-dasharray:none"
             d="m 15364.615,12478.758 c -1.529,-2.475 -6.5,-4.5 -11.048,-4.5 -12.895,0 -34.531,-28.248 -41.015,-53.547 -6.659,-25.983 -9.027,-26.815 -50.078,-17.585 -13.114,2.95 -25.739,4.849 -28.056,4.221 -2.316,-0.628 -17.502,1.844 -33.745,5.493 -16.244,3.649 -34.09,6.739 -39.658,6.868 -5.568,0.129 -20.859,0.595 -33.98,1.037 -31.217,1.052 -54.153,-6.889 -68.233,-23.623 -9.661,-11.482 -10.961,-16.398 -8.548,-32.321 3.534,-23.317 7.269,-27.654 60.143,-69.82 56.186,-44.809 79.736,-68.382 83.57,-83.659 3.748,-14.938 -0.769,-18.567 -28.246,-22.688 -30.311,-4.546 -124.068,8.532 -155.589,21.704 -14.073,5.88 -15.431,8.356 -20.433,37.244 -6.085,35.134 -7.705,96.305 -3.086,116.437 7.227,31.496 16.971,56.454 23.458,60.084 5.899,3.302 6.134,6.377 1.548,20.274 -6.962,21.092 -17.396,21.233 -36.965,0.504 -22.869,-24.225 -27.624,-47.245 -28.084,-135.957 -0.22,-42.675 -1.931,-77.627 -3.799,-77.669 -1.868,-0.03 -10.979,3.117 -20.247,7.02 -15.051,6.338 -18.054,6.375 -28.101,0.335 -6.187,-3.719 -11.248,-10.351 -11.248,-14.739 0,-8.938 24.864,-27.409 42.477,-31.556 6.335,-1.49 17.918,-7.473 25.742,-13.296 9.549,-7.103 19.905,-10.446 31.496,-10.166 9.499,0.231 26.382,-1.932 37.518,-4.805 45.79,-11.813 72.851,-14.947 133.538,-15.464 l 63.796,-0.544 13.82,13.215 c 17.35,16.594 17.502,28.48 0.812,63.758 -14.176,29.966 -31.256,47.528 -111.494,114.638 -20.082,16.798 -22.686,28.81 -8.288,38.245 10.949,7.174 15.567,7.168 77.469,-0.105 36.205,-4.255 76.954,-8.581 90.555,-9.615 13.602,-1.034 25.603,-2.752 26.668,-3.818 1.066,-1.066 2.535,-16.764 3.264,-34.885 0.73,-18.121 3.576,-38.647 6.325,-45.614 2.749,-6.966 4.998,-26.543 4.998,-43.502 0,-35.217 2.658,-45.071 12.16,-45.071 3.684,0 12.461,-4.104 19.506,-9.119 33.86,-24.112 92.489,-33.875 174.183,-29.007 45.992,2.742 50.619,3.813 50.619,11.714 0,11.141 -3.109,12.024 -51.744,14.696 -46.692,2.567 -67.837,6.336 -114.735,20.454 -41.298,12.432 -49.515,19.137 -49.425,40.33 0.117,27.964 -0.342,27.844 75.855,20.003 75.554,-7.773 82.747,-6.396 73.432,14.049 -2.85,6.254 -8.767,11.397 -13.152,11.429 -4.383,0.04 -20.601,4.018 -36.041,8.858 -15.439,4.841 -41.761,10.994 -58.493,13.674 -52.801,8.457 -49.582,6.638 -51.365,29.045 l -1.606,20.197 36.914,-1.044 c 35.863,-1.015 49.356,3.017 42.816,12.794 -1.753,2.621 -19.385,7.819 -39.183,11.552 -35.259,6.649 -35.977,7.046 -35.062,19.452 1.184,16.061 17.705,33.899 31.396,33.899 12.084,0 44.1,-14.488 58.387,-26.421 5.349,-4.468 13.521,-15.032 18.16,-23.473 21.08,-38.371 31.937,-45.131 42.071,-26.195 4.16,7.775 2.436,14.503 -9.966,38.879 -16.05,31.546 -37.201,52.18 -72.603,70.824 -21.938,11.555 -54.183,15.291 -59.38,6.882 z"
             id="path9583" />
          <path
             style="fill:#73be55;fill-opacity:0.913725;stroke:#73be55;stroke-width:1.72169;stroke-dasharray:none"
             d="m 13416.934,12608.895 c -17.036,-13.4 -20.801,-22.501 -29.394,-71.064 -9.004,-50.889 -8.576,-62.02 5.988,-155.814 6.507,-41.901 5.32,-47.082 -12.119,-52.895 -7.611,-2.537 -4.981,-27.497 3.42,-32.46 26.494,-15.654 24.19,-8.601 40.205,-122.988 l 2.082,-14.863 -19.137,2.87 c -21.671,3.249 -31.598,-3.867 -29.09,-20.855 1.244,-8.427 32.912,-35.181 48.233,-40.747 2.322,-0.844 6.936,-23.806 10.254,-51.029 l 6.031,-49.495 h 17.717 c 15.263,0 18.911,2.04 26.316,14.721 6.444,11.032 7.348,16.224 3.61,20.728 -6.574,7.921 -1.185,34.294 7.007,34.294 3.485,0 16.061,-4.928 27.947,-10.951 11.886,-6.024 35.61,-15.318 52.72,-20.655 30.711,-9.579 38.576,-12.661 78.351,-30.694 11.136,-5.048 31.384,-12.624 44.995,-16.836 13.611,-4.211 26.671,-9.388 29.021,-11.505 2.352,-2.118 7.28,-3.849 10.953,-3.849 3.674,0 15.592,-4.315 26.485,-9.589 19.786,-9.578 19.818,-9.579 31.791,-0.68 14.613,10.86 18.931,32.478 6.661,33.34 -21.384,1.503 -29.244,3.59 -63.959,16.977 -20.482,7.899 -40.607,16.088 -44.721,18.197 -11.603,5.951 -67.969,30.185 -92.969,39.97 -45.823,17.938 -103.926,42.459 -119.825,50.571 -14.8,7.551 -17.112,11.316 -23.879,38.901 -11.558,47.113 -16.583,78.352 -15.115,93.954 l 1.338,14.235 78.74,-26.134 c 43.307,-14.373 82.79,-27.059 87.739,-28.193 4.95,-1.133 28.766,-7.35 52.925,-13.816 24.16,-6.464 44.861,-11.755 46.005,-11.755 1.142,0 5.091,5.828 8.775,12.953 6.061,11.722 5.965,13.587 -1.009,19.643 -4.239,3.681 -13.782,8.07 -21.206,9.754 -7.424,1.685 -26.659,7.8 -42.745,13.591 -16.085,5.79 -59.617,20.165 -96.738,31.945 -37.12,11.779 -69.414,23.146 -71.766,25.259 -2.351,2.114 -7.96,3.844 -12.463,3.844 -14.91,0 -42.681,21.232 -48.181,36.837 -2.891,8.199 -8.298,43.776 -12.017,79.059 -7.811,74.1 -4.233,117.057 11.93,143.211 9.236,14.943 11.16,15.917 25.956,13.141 17.931,-3.364 45.915,-21.373 65.764,-42.322 7.268,-7.672 14.939,-13.948 17.048,-13.948 2.109,0 13.43,-9.749 25.157,-21.663 11.728,-11.915 41.008,-36.46 65.067,-54.543 24.058,-18.084 43.742,-34.775 43.742,-37.09 0,-2.315 8.605,-3.587 19.122,-2.826 18.576,1.344 19.123,1.832 19.123,17.067 0,13.821 -2.626,17.403 -22.086,30.138 -12.147,7.948 -23.284,16.118 -24.747,18.153 -1.464,2.037 -8.735,6.376 -16.159,9.644 -7.424,3.269 -16.536,8.743 -20.248,12.166 -3.712,3.423 -14.848,12.8 -24.747,20.84 -9.899,8.038 -33.889,28.734 -53.312,45.988 -19.423,17.255 -40.177,34.016 -46.12,37.245 -5.942,3.231 -16.372,8.897 -23.178,12.594 -18.107,9.837 -47.06,8.622 -61.288,-2.571 z"
             id="path9585" />
        </g>
        <g
           id="g9648"
           transform="matrix(2.1987186,0,0,2.377571,-13709.962,-16464.074)"
           style="stroke-width:0.273593">
          <path
             style="fill:#73be55;fill-opacity:0.913725;stroke:#73be55;stroke-width:1.72169;stroke-dasharray:none"
             d="m 14676.904,12808.003 c -6.965,-7.696 -6.77,-8.85 3.042,-18.068 l 10.481,-9.847 8.207,9.068 c 7.921,8.754 7.923,9.384 0.06,18.069 -10.02,11.072 -12.401,11.158 -21.794,0.778 z"
             id="path9610" />
          <path
             style="fill:#73be55;fill-opacity:0.913725;stroke:#73be55;stroke-width:1.72169;stroke-dasharray:none"
             d="m 13873.802,12810.276 -9.803,-10.434 10.514,-9.877 c 10.187,-9.571 10.745,-9.62 18.023,-1.578 9.606,10.613 9.461,15.678 -0.712,24.883 -7.695,6.965 -8.847,6.773 -18.022,-2.994 z"
             id="path9612" />
          <path
             style="fill:#73be55;fill-opacity:0.913725;stroke:#73be55;stroke-width:1.72169;stroke-dasharray:none"
             d="m 14909.046,12921.234 c -3.093,-1.248 -5.624,-5.973 -5.624,-10.498 0,-6.794 3.332,-8.101 19.123,-7.499 26.557,1.011 27.295,-6.394 1.842,-18.478 -20.558,-9.761 -21.437,-10.939 -20.107,-26.964 1.104,-13.288 4.034,-18.02 14.148,-22.845 21.223,-10.124 55.416,-0.105 49.779,14.59 -2.284,5.95 -5.859,7.096 -14.775,4.735 -31.981,-8.469 -35.263,2.971 -5.015,17.48 16.014,7.682 20.553,12.383 21.709,22.484 2.243,19.595 -10.027,30.045 -34.78,29.619 -11.371,-0.193 -23.206,-1.376 -26.3,-2.624 z"
             id="path9614" />
          <path
             style="fill:#73be55;fill-opacity:0.913725;stroke:#73be55;stroke-width:1.72169;stroke-dasharray:none"
             d="m 14821.757,12885.967 c -0.369,-21.035 -0.878,-40.769 -1.125,-43.852 -0.283,-3.551 9.205,-6.811 25.907,-8.898 35.888,-4.482 51.12,4.331 39.414,22.802 -3.167,4.999 -6.243,4.803 -17.705,-1.124 -7.63,-3.946 -14.985,-7.174 -16.346,-7.174 -1.36,0 -2.473,17.211 -2.473,38.246 v 38.246 h -13.499 -13.498 z"
             id="path9616" />
          <path
             id="path9618"
             style="fill:#73be55;fill-opacity:0.913725;stroke:#73be55;stroke-width:1.72169;stroke-dasharray:none"
             d="m 14768.971,12830.801 c -5.689,-0.08 -12.143,0.976 -19.412,3.154 -14.042,4.207 -19.261,8.804 -24.655,21.712 -9.047,21.654 -5.015,45.472 9.89,58.422 18.287,15.891 65.141,12.13 65.141,-5.228 0,-4.459 -5.088,-5.467 -19.432,-3.85 -14.375,1.619 -21.402,0.22 -26.996,-5.374 -14.829,-14.829 -9.582,-20.418 19.166,-20.418 14.702,0 27.838,-1.793 29.19,-3.983 1.354,-2.189 -0.21,-11.69 -3.474,-21.116 -5.346,-15.445 -14.882,-23.107 -29.418,-23.319 z m -4.615,16.92 c 9.657,0 15.286,13.826 7.611,18.695 -9.066,5.753 -26.026,4.42 -26.026,-2.045 0,-8.186 9.36,-16.65 18.415,-16.65 z" />
          <path
             style="fill:#73be55;fill-opacity:0.913725;stroke:#73be55;stroke-width:1.72169;stroke-dasharray:none"
             d="m 14678.4,12896.091 c -0.02,-15.467 -1.304,-35.715 -2.839,-44.995 -2.726,-16.5 -2.475,-16.874 11.299,-16.874 h 14.087 v 44.996 44.995 h -11.249 c -10.793,0 -11.251,-1.137 -11.298,-28.122 z"
             id="path9620" />
          <path
             style="fill:#73be55;fill-opacity:0.913725;stroke:#73be55;stroke-width:1.72169;stroke-dasharray:none"
             d="m 14611.247,12915.754 c -2.634,-4.921 -4.788,-22.242 -4.788,-38.491 0,-16.695 -1.957,-29.542 -4.5,-29.542 -7.396,0 -5.182,-8.159 7.347,-27.093 14.923,-22.551 24.149,-23.375 24.149,-2.154 0,13.799 1.393,15.748 11.249,15.748 7,0 11.248,2.55 11.248,6.75 0,4.199 -4.248,6.749 -11.248,6.749 -10.845,0 -11.249,1.05 -11.249,29.247 0,28.42 0.328,29.247 11.579,29.247 8.596,0 11.194,2.029 10.085,7.874 -2.329,12.279 -37.477,13.613 -43.872,1.665 z"
             id="path9622" />
          <path
             style="fill:#73be55;fill-opacity:0.913725;stroke:#73be55;stroke-width:1.72169;stroke-dasharray:none"
             d="m 14493.972,12895.529 c 0,-15.777 -1.259,-34.981 -2.798,-42.677 -2.171,-10.859 -1.026,-14.671 5.111,-17.027 4.35,-1.668 11.178,-0.973 15.172,1.547 5.194,3.276 10.094,2.727 17.203,-1.932 11.427,-7.487 33.606,-4.346 42.167,5.971 5.67,6.831 13.247,67.219 9.685,77.178 -1.108,3.093 -7.871,5.624 -15.03,5.624 h -13.017 v -35.621 c 0,-38.073 -1.462,-40.419 -23.217,-37.226 l -12.778,1.876 v 35.486 c 0,34.851 -0.201,35.485 -11.249,35.485 -10.822,0 -11.249,-1.087 -11.249,-28.684 z"
             id="path9624" />
          <path
             id="path9626"
             style="fill:#73be55;fill-opacity:0.913725;stroke:#73be55;stroke-width:1.72169;stroke-dasharray:none"
             d="m 14426.994,12831.973 c -32.199,0 -43.258,11.634 -43.258,45.508 0,21.827 1.608,26.397 12.624,35.873 12.546,10.791 37.837,14.521 54.666,8.064 21.313,-8.179 27.312,-56.219 9.592,-76.821 -9.237,-10.738 -14.262,-12.624 -33.624,-12.624 z m -1.237,15.448 c 5.625,0.02 11.785,3.761 17.088,11.855 5.941,9.066 6.688,15.125 3.477,28.122 -3.507,14.196 -6.103,16.764 -18.142,17.936 -16.027,1.56 -19.697,-4.045 -19.697,-30.084 0,-17.598 7.897,-27.87 17.274,-27.829 z" />
          <path
             style="fill:#73be55;fill-opacity:0.913725;stroke:#73be55;stroke-width:1.72169;stroke-dasharray:none"
             d="m 14304.246,12888.217 c -0.413,-19.798 -0.919,-39.527 -1.125,-43.843 -0.298,-6.229 5.105,-8.612 26.189,-11.557 23.517,-3.284 27.604,-2.67 35.625,5.352 7.483,7.483 8.068,10.26 3.355,15.937 -5.104,6.152 -7.097,6.158 -18.885,0.06 -7.247,-3.748 -15.143,-5.6 -17.545,-4.116 -2.402,1.485 -4.367,18.779 -4.367,38.43 0,35.113 -0.195,35.731 -11.249,35.731 -10.998,0 -11.265,-0.799 -11.998,-35.997 z"
             id="path9628" />
          <path
             style="fill:#73be55;fill-opacity:0.913725;stroke:#73be55;stroke-width:1.72169;stroke-dasharray:none"
             d="m 14191.54,12857.845 c -1.083,-36.503 -1.189,-67.887 -0.234,-69.743 2.613,-5.083 90.237,-4.061 93.42,1.09 1.517,2.454 0.781,7.997 -1.635,12.315 -3.67,6.557 -9.651,7.609 -36.239,6.381 l -31.845,-1.47 v 18.401 18.402 h 26.996 c 25.938,0 26.997,0.45 26.997,11.473 0,11.381 -0.216,11.448 -27.447,8.366 l -27.447,-3.105 0.987,26.504 c 1.382,37.06 1.183,37.754 -10.835,37.754 h -10.748 z"
             id="path9630" />
          <path
             style="fill:#73be55;fill-opacity:0.913725;stroke:#73be55;stroke-width:1.72169;stroke-dasharray:none"
             d="m 13921.699,12892.717 c -0.464,-17.324 -0.97,-37.037 -1.125,-43.809 -0.302,-13.244 13.685,-20.351 19.986,-10.154 2.515,4.068 6.244,3.518 14.98,-2.205 13.113,-8.592 34.715,-6.155 43.937,4.957 5.315,6.405 12.737,67.912 9.401,77.918 -0.878,2.635 -7.416,4.789 -14.529,4.789 h -12.935 l -1.314,-34.871 -1.314,-34.872 -16.873,-1.396 -16.873,-1.397 v 36.268 c 0,35.686 -0.181,36.268 -11.249,36.268 -10.847,0 -11.279,-1.124 -12.092,-31.496 z"
             id="path9632" />
          <path
             style="fill:#73be55;fill-opacity:0.913725;stroke:#73be55;stroke-width:1.72169;stroke-dasharray:none"
             d="m 13872.999,12896.091 c -0.02,-15.467 -1.304,-35.715 -2.839,-44.995 -2.726,-16.5 -2.476,-16.874 11.299,-16.874 h 14.087 v 44.996 44.995 h -11.249 c -10.793,0 -11.251,-1.137 -11.298,-28.122 z"
             id="path9634" />
          <path
             style="fill:#73be55;fill-opacity:0.913725;stroke:#73be55;stroke-width:1.72169;stroke-dasharray:none"
             d="m 13788.684,12921.234 c -3.093,-1.248 -5.624,-6.112 -5.624,-10.809 0,-7.558 2.375,-8.211 20.708,-5.699 18.559,2.544 20.539,1.968 19.091,-5.551 -0.959,-4.981 -7.706,-10.135 -16.605,-12.689 -18.037,-5.172 -29.7,-21.162 -26.047,-35.711 2.726,-10.864 19.35,-21.052 34.349,-21.052 14.542,0 31.946,10.117 30.406,17.676 -1.391,6.825 -9.788,8.152 -27.689,4.373 -17.61,-3.718 -12.046,9.626 7.507,18.007 40.753,17.47 32.193,54.952 -12.35,54.079 -9.966,-0.193 -20.653,-1.376 -23.746,-2.624 z"
             id="path9636" />
          <path
             style="fill:#73be55;fill-opacity:0.913725;stroke:#73be55;stroke-width:1.72169;stroke-dasharray:none"
             d="m 13698.695,12921.234 c -3.093,-1.248 -5.624,-7.113 -5.624,-13.033 0,-9.694 1.146,-10.326 11.541,-6.374 6.349,2.414 16.62,4.388 22.828,4.388 15.907,0 12.265,-13.754 -5.123,-19.337 -7.424,-2.385 -17.041,-7.422 -21.372,-11.194 -15.517,-13.519 -7.038,-38.954 14.57,-43.7 16.702,-3.668 45.047,5.127 45.047,13.977 0,8.93 -9.726,11.948 -22.846,7.089 -11.698,-4.333 -22.148,-2.524 -22.148,3.834 0,2.154 9.547,8.138 21.215,13.3 22.547,9.972 28.1,15.515 28.21,28.157 0.133,15.213 -16.325,25.899 -39.301,25.517 -11.755,-0.193 -23.904,-1.376 -26.997,-2.624 z"
             id="path9638" />
          <path
             id="path9640"
             style="fill:#73be55;fill-opacity:0.913725;stroke:#73be55;stroke-width:1.72169;stroke-dasharray:none"
             d="m 13631.65,12830.786 c -24.65,-0.389 -42.065,18.363 -42.065,49.243 0,17.46 2.316,24.413 11.043,33.141 8.387,8.386 15.819,11.042 30.889,11.042 36.174,0 53.593,-25.72 43.302,-63.943 -3.812,-14.154 -8.044,-19.093 -20.986,-24.501 -7.813,-3.265 -15.282,-4.873 -22.183,-4.982 z m 2.398,17.23 c 5.673,-0.01 10.88,2.82 13.871,8.409 6.321,11.81 5.885,37.762 -0.744,44.391 -8.265,8.265 -25.229,6.424 -30.437,-3.305 -6.885,-12.866 -5.656,-34.652 2.412,-42.721 4.525,-4.524 9.894,-6.76 14.898,-6.774 z" />
          <path
             style="fill:#73be55;fill-opacity:0.913725;stroke:#73be55;stroke-width:1.72169;stroke-dasharray:none"
             d="m 13513.054,12902.841 c -0.02,-11.756 -1.279,-31.695 -2.796,-44.311 l -2.755,-22.937 26.403,-2.724 c 32.444,-3.349 50.184,4.862 41.287,19.107 -4.908,7.86 -6.412,8.024 -18.11,1.974 -7.017,-3.628 -14.724,-5.382 -17.126,-3.897 -2.402,1.484 -4.367,18.777 -4.367,38.43 0,35.113 -0.194,35.73 -11.248,35.73 -10.415,0 -11.251,-1.585 -11.288,-21.372 z"
             id="path9642" />
          <path
             style="fill:#73be55;fill-opacity:0.913725;stroke:#73be55;stroke-width:1.72169;stroke-dasharray:none"
             d="m 13411.855,12919.921 c -45.187,-18.692 -48.665,-99.999 -5.405,-126.376 18.804,-11.467 45.419,-11.24 64.492,0.548 16.322,10.089 18.912,17.91 8.728,26.362 -5.01,4.159 -9.42,3.785 -20.023,-1.699 -19.119,-9.887 -33.355,-8.755 -44.936,3.572 -21.787,23.194 -14.942,63.358 12.754,74.831 13.108,5.43 33.57,4.506 50.757,-2.291 13.668,-5.405 10.213,17.836 -3.586,24.124 -13.051,5.947 -49.351,6.483 -62.781,0.929 z"
             id="path9644" />
          <path
             id="path9646"
             style="fill:#73be55;fill-opacity:0.913725;stroke:#73be55;stroke-width:1.72169;stroke-dasharray:none"
             d="m 14063.275,12830.854 c -32.27,0 -50.486,58.482 -22.691,84.378 10.478,9.762 30.43,11.712 44.235,4.324 7.705,-4.125 8.704,-3.113 8.704,8.839 0,21.232 -20.107,27.709 -50.039,16.121 -10.814,-4.185 -15.502,11.703 -5.592,18.95 v 0 c 9.268,6.776 48.167,7.647 59.951,1.339 13.189,-7.058 18.176,-29.537 18.176,-81.941 v -49.005 l -16.873,0.396 c -9.28,0.217 -22.439,-0.949 -29.239,-2.591 -2.267,-0.547 -4.481,-0.807 -6.632,-0.808 z m 13.075,16.755 c 7.022,-0.351 10.421,9.395 10.421,29.422 0,24.037 -1.027,27.081 -9.561,28.298 -22.261,3.177 -32.708,-31.085 -14.908,-48.887 5.698,-5.697 10.369,-8.65 14.048,-8.833 z" />
        </g>
      </g>
    </g>
  </g>
</svg>
