<?xml version="1.0" encoding="UTF-8" standalone="no"?>
<!-- Created with Inkscape (http://www.inkscape.org/) -->

<svg
   version="1.1"
   id="svg1109"
   width="12881.438"
   height="3594.9116"
   viewBox="0 0 12881.438 3594.9117"
   sodipodi:docname="explorer-logo.svg"
   xml:space="preserve"
   inkscape:version="1.2.1 (9c6d41e, 2022-07-14)"
   inkscape:export-filename="explorer-logo-verde.svg"
   inkscape:export-xdpi="4.6733489"
   inkscape:export-ydpi="4.6733489"
   xmlns:inkscape="http://www.inkscape.org/namespaces/inkscape"
   xmlns:sodipodi="http://sodipodi.sourceforge.net/DTD/sodipodi-0.dtd"
   xmlns="http://www.w3.org/2000/svg"
   xmlns:svg="http://www.w3.org/2000/svg"><sodipodi:namedview
     id="namedview6998"
     pagecolor="#ffffff"
     bordercolor="#999999"
     borderopacity="1"
     inkscape:showpageshadow="0"
     inkscape:pageopacity="0"
     inkscape:pagecheckerboard="0"
     inkscape:deskcolor="#d1d1d1"
     showgrid="false"
     inkscape:zoom="0.021455733"
     inkscape:cx="6525.0626"
     inkscape:cy="-1864.3036"
     inkscape:window-width="1294"
     inkscape:window-height="704"
     inkscape:window-x="72"
     inkscape:window-y="27"
     inkscape:window-maximized="1"
     inkscape:current-layer="svg1109" /><defs
     id="defs1113"><linearGradient
       id="linearGradient13758"
       inkscape:swatch="solid"><stop
         style="stop-color:#77c459;stop-opacity:1;"
         offset="0"
         id="stop13756" /></linearGradient></defs><g
     id="g15448"
     transform="translate(742.14374,4166.4882)"><g
       id="g9648"
       transform="matrix(2.8628958,0,0,3.0766405,-30719.364,-40472.764)"
       style="fill:#ff6600;fill-opacity:1;stroke:none;stroke-width:0.336945"><path
         style="fill:#ff6600;fill-opacity:1;stroke:none;stroke-width:2.12036;stroke-dasharray:none"
         d="m 14676.904,12808.003 c -6.965,-7.696 -6.77,-8.85 3.042,-18.068 l 10.481,-9.847 8.207,9.068 c 7.921,8.754 7.923,9.384 0.06,18.069 -10.02,11.072 -12.401,11.158 -21.794,0.778 z"
         id="path9610" /><path
         style="fill:#ff6600;fill-opacity:1;stroke:none;stroke-width:2.12036;stroke-dasharray:none"
         d="m 13873.802,12810.276 -9.803,-10.434 10.514,-9.877 c 10.187,-9.571 10.745,-9.62 18.023,-1.578 9.606,10.613 9.461,15.678 -0.712,24.883 -7.695,6.965 -8.847,6.773 -18.022,-2.994 z"
         id="path9612" /><path
         style="fill:#ff6600;fill-opacity:1;stroke:none;stroke-width:2.12036;stroke-dasharray:none"
         d="m 14909.046,12921.234 c -3.093,-1.248 -5.624,-5.973 -5.624,-10.498 0,-6.794 3.332,-8.101 19.123,-7.499 26.557,1.011 27.295,-6.394 1.842,-18.478 -20.558,-9.761 -21.437,-10.939 -20.107,-26.964 1.104,-13.288 4.034,-18.02 14.148,-22.845 21.223,-10.124 55.416,-0.105 49.779,14.59 -2.284,5.95 -5.859,7.096 -14.775,4.735 -31.981,-8.469 -35.263,2.971 -5.015,17.48 16.014,7.682 20.553,12.383 21.709,22.484 2.243,19.595 -10.027,30.045 -34.78,29.619 -11.371,-0.193 -23.206,-1.376 -26.3,-2.624 z"
         id="path9614" /><path
         style="fill:#ff6600;fill-opacity:1;stroke:none;stroke-width:2.12036;stroke-dasharray:none"
         d="m 14821.757,12885.967 c -0.369,-21.035 -0.878,-40.769 -1.125,-43.852 -0.283,-3.551 9.205,-6.811 25.907,-8.898 35.888,-4.482 51.12,4.331 39.414,22.802 -3.167,4.999 -6.243,4.803 -17.705,-1.124 -7.63,-3.946 -14.985,-7.174 -16.346,-7.174 -1.36,0 -2.473,17.211 -2.473,38.246 v 38.246 h -13.499 -13.498 z"
         id="path9616" /><path
         id="path9618"
         style="fill:#ff6600;fill-opacity:1;stroke:none;stroke-width:2.12036;stroke-dasharray:none"
         d="m 14768.971,12830.801 c -5.689,-0.08 -12.143,0.976 -19.412,3.154 -14.042,4.207 -19.261,8.804 -24.655,21.712 -9.047,21.654 -5.015,45.472 9.89,58.422 18.287,15.891 65.141,12.13 65.141,-5.228 0,-4.459 -5.088,-5.467 -19.432,-3.85 -14.375,1.619 -21.402,0.22 -26.996,-5.374 -14.829,-14.829 -9.582,-20.418 19.166,-20.418 14.702,0 27.838,-1.793 29.19,-3.983 1.354,-2.189 -0.21,-11.69 -3.474,-21.116 -5.346,-15.445 -14.882,-23.107 -29.418,-23.319 z m -4.615,16.92 c 9.657,0 15.286,13.826 7.611,18.695 -9.066,5.753 -26.026,4.42 -26.026,-2.045 0,-8.186 9.36,-16.65 18.415,-16.65 z" /><path
         style="fill:#ff6600;fill-opacity:1;stroke:none;stroke-width:2.12036;stroke-dasharray:none"
         d="m 14678.4,12896.091 c -0.02,-15.467 -1.304,-35.715 -2.839,-44.995 -2.726,-16.5 -2.475,-16.874 11.299,-16.874 h 14.087 v 44.996 44.995 h -11.249 c -10.793,0 -11.251,-1.137 -11.298,-28.122 z"
         id="path9620" /><path
         style="fill:#ff6600;fill-opacity:1;stroke:none;stroke-width:2.12036;stroke-dasharray:none"
         d="m 14611.247,12915.754 c -2.634,-4.921 -4.788,-22.242 -4.788,-38.491 0,-16.695 -1.957,-29.542 -4.5,-29.542 -7.396,0 -5.182,-8.159 7.347,-27.093 14.923,-22.551 24.149,-23.375 24.149,-2.154 0,13.799 1.393,15.748 11.249,15.748 7,0 11.248,2.55 11.248,6.75 0,4.199 -4.248,6.749 -11.248,6.749 -10.845,0 -11.249,1.05 -11.249,29.247 0,28.42 0.328,29.247 11.579,29.247 8.596,0 11.194,2.029 10.085,7.874 -2.329,12.279 -37.477,13.613 -43.872,1.665 z"
         id="path9622" /><path
         style="fill:#ff6600;fill-opacity:1;stroke:none;stroke-width:2.12036;stroke-dasharray:none"
         d="m 14493.972,12895.529 c 0,-15.777 -1.259,-34.981 -2.798,-42.677 -2.171,-10.859 -1.026,-14.671 5.111,-17.027 4.35,-1.668 11.178,-0.973 15.172,1.547 5.194,3.276 10.094,2.727 17.203,-1.932 11.427,-7.487 33.606,-4.346 42.167,5.971 5.67,6.831 13.247,67.219 9.685,77.178 -1.108,3.093 -7.871,5.624 -15.03,5.624 h -13.017 v -35.621 c 0,-38.073 -1.462,-40.419 -23.217,-37.226 l -12.778,1.876 v 35.486 c 0,34.851 -0.201,35.485 -11.249,35.485 -10.822,0 -11.249,-1.087 -11.249,-28.684 z"
         id="path9624" /><path
         id="path9626"
         style="fill:#ff6600;fill-opacity:1;stroke:none;stroke-width:2.12036;stroke-dasharray:none"
         d="m 14426.994,12831.973 c -32.199,0 -43.258,11.634 -43.258,45.508 0,21.827 1.608,26.397 12.624,35.873 12.546,10.791 37.837,14.521 54.666,8.064 21.313,-8.179 27.312,-56.219 9.592,-76.821 -9.237,-10.738 -14.262,-12.624 -33.624,-12.624 z m -1.237,15.448 c 5.625,0.02 11.785,3.761 17.088,11.855 5.941,9.066 6.688,15.125 3.477,28.122 -3.507,14.196 -6.103,16.764 -18.142,17.936 -16.027,1.56 -19.697,-4.045 -19.697,-30.084 0,-17.598 7.897,-27.87 17.274,-27.829 z" /><path
         style="fill:#ff6600;fill-opacity:1;stroke:none;stroke-width:2.12036;stroke-dasharray:none"
         d="m 14304.246,12888.217 c -0.413,-19.798 -0.919,-39.527 -1.125,-43.843 -0.298,-6.229 5.105,-8.612 26.189,-11.557 23.517,-3.284 27.604,-2.67 35.625,5.352 7.483,7.483 8.068,10.26 3.355,15.937 -5.104,6.152 -7.097,6.158 -18.885,0.06 -7.247,-3.748 -15.143,-5.6 -17.545,-4.116 -2.402,1.485 -4.367,18.779 -4.367,38.43 0,35.113 -0.195,35.731 -11.249,35.731 -10.998,0 -11.265,-0.799 -11.998,-35.997 z"
         id="path9628" /><path
         style="fill:#ff6600;fill-opacity:1;stroke:none;stroke-width:2.12036;stroke-dasharray:none"
         d="m 14191.54,12857.845 c -1.083,-36.503 -1.189,-67.887 -0.234,-69.743 2.613,-5.083 90.237,-4.061 93.42,1.09 1.517,2.454 0.781,7.997 -1.635,12.315 -3.67,6.557 -9.651,7.609 -36.239,6.381 l -31.845,-1.47 v 18.401 18.402 h 26.996 c 25.938,0 26.997,0.45 26.997,11.473 0,11.381 -0.216,11.448 -27.447,8.366 l -27.447,-3.105 0.987,26.504 c 1.382,37.06 1.183,37.754 -10.835,37.754 h -10.748 z"
         id="path9630" /><path
         style="fill:#ff6600;fill-opacity:1;stroke:none;stroke-width:2.12036;stroke-dasharray:none"
         d="m 13921.699,12892.717 c -0.464,-17.324 -0.97,-37.037 -1.125,-43.809 -0.302,-13.244 13.685,-20.351 19.986,-10.154 2.515,4.068 6.244,3.518 14.98,-2.205 13.113,-8.592 34.715,-6.155 43.937,4.957 5.315,6.405 12.737,67.912 9.401,77.918 -0.878,2.635 -7.416,4.789 -14.529,4.789 h -12.935 l -1.314,-34.871 -1.314,-34.872 -16.873,-1.396 -16.873,-1.397 v 36.268 c 0,35.686 -0.181,36.268 -11.249,36.268 -10.847,0 -11.279,-1.124 -12.092,-31.496 z"
         id="path9632" /><path
         style="fill:#ff6600;fill-opacity:1;stroke:none;stroke-width:2.12036;stroke-dasharray:none"
         d="m 13872.999,12896.091 c -0.02,-15.467 -1.304,-35.715 -2.839,-44.995 -2.726,-16.5 -2.476,-16.874 11.299,-16.874 h 14.087 v 44.996 44.995 h -11.249 c -10.793,0 -11.251,-1.137 -11.298,-28.122 z"
         id="path9634" /><path
         style="fill:#ff6600;fill-opacity:1;stroke:none;stroke-width:2.12036;stroke-dasharray:none"
         d="m 13788.684,12921.234 c -3.093,-1.248 -5.624,-6.112 -5.624,-10.809 0,-7.558 2.375,-8.211 20.708,-5.699 18.559,2.544 20.539,1.968 19.091,-5.551 -0.959,-4.981 -7.706,-10.135 -16.605,-12.689 -18.037,-5.172 -29.7,-21.162 -26.047,-35.711 2.726,-10.864 19.35,-21.052 34.349,-21.052 14.542,0 31.946,10.117 30.406,17.676 -1.391,6.825 -9.788,8.152 -27.689,4.373 -17.61,-3.718 -12.046,9.626 7.507,18.007 40.753,17.47 32.193,54.952 -12.35,54.079 -9.966,-0.193 -20.653,-1.376 -23.746,-2.624 z"
         id="path9636" /><path
         style="fill:#ff6600;fill-opacity:1;stroke:none;stroke-width:2.12036;stroke-dasharray:none"
         d="m 13698.695,12921.234 c -3.093,-1.248 -5.624,-7.113 -5.624,-13.033 0,-9.694 1.146,-10.326 11.541,-6.374 6.349,2.414 16.62,4.388 22.828,4.388 15.907,0 12.265,-13.754 -5.123,-19.337 -7.424,-2.385 -17.041,-7.422 -21.372,-11.194 -15.517,-13.519 -7.038,-38.954 14.57,-43.7 16.702,-3.668 45.047,5.127 45.047,13.977 0,8.93 -9.726,11.948 -22.846,7.089 -11.698,-4.333 -22.148,-2.524 -22.148,3.834 0,2.154 9.547,8.138 21.215,13.3 22.547,9.972 28.1,15.515 28.21,28.157 0.133,15.213 -16.325,25.899 -39.301,25.517 -11.755,-0.193 -23.904,-1.376 -26.997,-2.624 z"
         id="path9638" /><path
         id="path9640"
         style="fill:#ff6600;fill-opacity:1;stroke:none;stroke-width:2.12036;stroke-dasharray:none"
         d="m 13631.65,12830.786 c -24.65,-0.389 -42.065,18.363 -42.065,49.243 0,17.46 2.316,24.413 11.043,33.141 8.387,8.386 15.819,11.042 30.889,11.042 36.174,0 53.593,-25.72 43.302,-63.943 -3.812,-14.154 -8.044,-19.093 -20.986,-24.501 -7.813,-3.265 -15.282,-4.873 -22.183,-4.982 z m 2.398,17.23 c 5.673,-0.01 10.88,2.82 13.871,8.409 6.321,11.81 5.885,37.762 -0.744,44.391 -8.265,8.265 -25.229,6.424 -30.437,-3.305 -6.885,-12.866 -5.656,-34.652 2.412,-42.721 4.525,-4.524 9.894,-6.76 14.898,-6.774 z" /><path
         style="fill:#ff6600;fill-opacity:1;stroke:none;stroke-width:2.12036;stroke-dasharray:none"
         d="m 13513.054,12902.841 c -0.02,-11.756 -1.279,-31.695 -2.796,-44.311 l -2.755,-22.937 26.403,-2.724 c 32.444,-3.349 50.184,4.862 41.287,19.107 -4.908,7.86 -6.412,8.024 -18.11,1.974 -7.017,-3.628 -14.724,-5.382 -17.126,-3.897 -2.402,1.484 -4.367,18.777 -4.367,38.43 0,35.113 -0.194,35.73 -11.248,35.73 -10.415,0 -11.251,-1.585 -11.288,-21.372 z"
         id="path9642" /><path
         style="fill:#ff6600;fill-opacity:1;stroke:none;stroke-width:2.12036;stroke-dasharray:none"
         d="m 13411.855,12919.921 c -45.187,-18.692 -48.665,-99.999 -5.405,-126.376 18.804,-11.467 45.419,-11.24 64.492,0.548 16.322,10.089 18.912,17.91 8.728,26.362 -5.01,4.159 -9.42,3.785 -20.023,-1.699 -19.119,-9.887 -33.355,-8.755 -44.936,3.572 -21.787,23.194 -14.942,63.358 12.754,74.831 13.108,5.43 33.57,4.506 50.757,-2.291 13.668,-5.405 10.213,17.836 -3.586,24.124 -13.051,5.947 -49.351,6.483 -62.781,0.929 z"
         id="path9644" /><path
         id="path9646"
         style="fill:#ff6600;fill-opacity:1;stroke:none;stroke-width:2.12036;stroke-dasharray:none"
         d="m 14063.275,12830.854 c -32.27,0 -50.486,58.482 -22.691,84.378 10.478,9.762 30.43,11.712 44.235,4.324 7.705,-4.125 8.704,-3.113 8.704,8.839 0,21.232 -20.107,27.709 -50.039,16.121 -10.814,-4.185 -15.502,11.703 -5.592,18.95 v 0 c 9.268,6.776 48.167,7.647 59.951,1.339 13.189,-7.058 18.176,-29.537 18.176,-81.941 v -49.005 l -16.873,0.396 c -9.28,0.217 -22.439,-0.949 -29.239,-2.591 -2.267,-0.547 -4.481,-0.807 -6.632,-0.808 z m 13.075,16.755 c 7.022,-0.351 10.421,9.395 10.421,29.422 0,24.037 -1.027,27.081 -9.561,28.298 -22.261,3.177 -32.708,-31.085 -14.908,-48.887 5.698,-5.697 10.369,-8.65 14.048,-8.833 z" /></g><path
       style="fill:#77c459;fill-opacity:1;stroke:none;stroke-width:6.29289;stroke-dasharray:none"
       d="m -682.45001,-647.66527 c 2.11701,-8.36109 120.46485,-347.43428 262.99142,-753.49863 142.52981,-406.0633 261.61337,-745.458 264.62687,-754.208 3.79633,-11.0112 30.96582,54.0735 88.26632,211.4403 45.5299,125.0429 85.4331,224.0558 88.6683,220.0271 3.2385,-4.0271 124.8305,-365.7803 270.2049,-803.8949 145.3728,-438.1137 266.5002,-793.8003 269.1678,-790.4146 2.6692,3.3857 164.9748,488.877 360.68,1078.8642 195.7043,589.9871 358.377,1077.9572 361.4887,1084.3738 3.7062,7.64 32.0848,-32.3557 82.1565,-115.7919 l 76.4909,-127.4632 181.8516,378.5882 c 100.0199,208.22674 181.8507,380.52303 181.8507,382.88408 0,2.36258 -560.7644,4.2934 -1246.1449,4.2934 -1182.91487,0 -1245.95089,-0.77051 -1242.29911,-15.19985 z"
       id="path9555" /><path
       style="fill:#ffffff;fill-opacity:1;stroke-width:1"
       d="m 3384.5785,-1077.3131 c -46.9172,-22.4994 -37.5526,-25.9575 96.9892,-36.2644 119.6805,-9.2052 159.5062,-21.3949 202.693,-61.9881 100.1355,-94.1606 114.7019,-288.7765 41.5034,-553.9583 -41.5034,-150.3278 -69.4681,-167.8707 -181.0953,-113.8234 -121.5872,58.9176 -211.3991,56.4749 -275.2331,-7.0794 -67.487,-67.4984 -66.173,-156.0749 3.6617,-238.9902 123.1217,-146.2358 344.0398,-191.8625 396.4509,-81.9649 51.7526,108.4793 172.3807,566.308 184.9745,702.0032 16.3959,176.1284 -35.1391,312.3774 -138.1318,365.6311 -85.4947,44.2174 -264.9066,58.6099 -331.6636,26.6744 z m 96.0387,-821.4167 c 74.2235,-60.336 117.4102,-144.9006 103.0642,-201.8523 -14.8584,-59.2345 -46.4819,-64.271 -145.1545,-23.0533 -119.8981,50.0354 -171.0694,162.3667 -104.3812,229.0744 42.0875,42.0853 91.2062,40.6732 146.4715,-3.935 z m -400.3273,152.9244 c -41.5034,-87.0044 -51.2401,-89.3641 -130.445,-30.8372 -32.5711,24.1486 -100.5764,48.454 -151.0807,54.1981 -76.8602,8.6546 -101.6042,1.5753 -152.6954,-42.0823 -53.9484,-46.4111 -60.7592,-65.4463 -59.8059,-166.5324 2.1959,-221.6781 188.9282,-417.8693 357.2149,-375.1533 112.6579,28.5513 149.4747,96.6773 183.4372,339.5166 16.3987,117.3676 34.2603,220.4966 39.6769,229.3082 5.1217,8.8084 -3.6616,27.2928 -20.421,41.1408 -25.0389,20.7642 -36.3817,12.2696 -65.881,-49.5585 z m -214.992,-84.8784 c 90.1125,-46.6511 124.808,-110.2114 124.808,-229.1512 0,-133.6524 -33.3786,-183.8386 -109.5087,-164.7264 -106.6486,26.7482 -222.0834,190.5271 -222.5959,315.8417 0,36.4212 76.488,109.03 115.0656,109.03 17.7155,0 59.2218,-14.0049 92.231,-30.9941 z m 3245.6019,-41.6977 c 6.5876,-114.1403 30.9651,-282.3249 54.6069,-373.6518 49.4852,-190.8441 157.6768,-425.5764 196.1771,-425.5764 68.8841,0 190.7605,213.2604 301.7292,527.9178 81.1058,229.7788 104.7476,332.3571 84.401,365.3171 -25.9836,42.0085 -51.6037,9.1285 -111.192,-142.6945 -61.7784,-157.4071 -45.5286,-147.1034 -283.5756,-180.2204 l -93.9888,-13.1404 -57.2408,203.8182 c -80.1553,285.0847 -105.1856,295.6252 -90.917,38.2304 z m 420.6826,-358.0779 c -21.5234,-91.1763 -120.2675,-316.5495 -138.716,-316.5495 -14.93,0 -101.5268,248.3466 -101.5268,291.2964 0,45.3159 71.7327,82.3617 159.5034,82.3617 92.1594,0 93.9144,-1.5722 80.7394,-57.1086 z m 426.0188,526.3455 c -24.0053,-28.8681 -87.5444,-479.1498 -92.5946,-656.0628 -2.1958,-68.363 5.1217,-93.453 27.0086,-93.453 38.7951,0 57.1692,72.3687 94.8677,373.0273 46.7711,373.0273 39.9661,460.0285 -29.2817,376.4885 z m 2559.1373,-41.6915 c -41.503,-87.0044 -51.241,-89.3641 -130.442,-30.8372 -32.571,24.1486 -100.58,48.454 -151.013,54.1981 -76.931,8.6546 -101.672,1.5753 -152.695,-42.0823 -54.019,-46.4111 -60.825,-65.4463 -59.874,-166.5324 2.195,-221.6781 188.927,-417.8693 357.211,-375.1533 112.658,28.5513 149.475,96.6773 183.443,339.5166 16.397,117.3676 34.257,220.4966 39.671,229.3082 5.125,8.8084 -3.659,27.2928 -20.349,41.1408 -25.108,20.7642 -36.453,12.2696 -65.952,-49.5585 z m -214.984,-84.8784 c 90.182,-46.6511 124.802,-110.2114 124.802,-229.1512 0,-133.6524 -33.378,-183.8386 -109.508,-164.7264 -106.649,26.7482 -222.015,190.5271 -222.599,315.8417 0,36.4212 76.496,109.03 115.143,109.03 17.638,0 59.147,-14.0049 92.162,-30.9941 z m -7365.7984,102.6552 c -56.1442,-39.4087 -119.9009,-160.9453 -232.6303,-444.0608 -89.8863,-225.5331 -101.7445,-291.924 -52.1162,-291.924 50.2152,0 105.4061,113.042 144.7881,296.7174 43.1868,201.6184 96.7001,316.6295 154.2328,331.6526 57.0203,14.9495 73.2758,-12.0327 115.8013,-192.4131 59.1475,-250.4692 135.0543,-477.4946 159.7209,-477.4946 54.3893,0 -49.2618,530.6744 -140.027,716.5588 -45.7549,93.8468 -81.9876,108.5562 -149.7696,60.9637 z m 496.6638,4.7196 c -63.104,-75.9869 -86.7458,-488.2721 -29.1357,-507.3073 30.5241,-10.0729 29.2044,-14.0018 88.3518,259.5116 25.2536,116.9769 40.5558,226.7145 33.9626,243.9406 -14.784,38.4673 -62.7319,40.4332 -93.1787,3.935 z m 1576.1329,-10.6175 c -175.1634,-93.9268 -198.078,-394.2715 -41.2114,-540.3504 65.002,-60.5698 205.1809,-61.2774 259.4185,-1.5722 49.9203,55.2227 50.9508,180.6942 2.1957,255.2658 -44.9417,68.5199 -152.9845,137.3536 -215.7907,137.4274 -69.2477,0 -36.9657,55.7764 48.6778,84.0169 54.02,17.7768 96.8404,17.6199 173.7005,-0.7907 105.9959,-25.4069 145.5238,-17.1461 145.5238,30.3665 0,72.2179 -258.0299,96.8403 -372.4427,35.4797 z m 129.1252,-311.8299 c 43.5532,-50.8968 52.995,-91.0901 33.5989,-143.2452 -38.1366,-102.5814 -205.5444,-12.3558 -205.5444,110.759 0,87.0012 107.8194,107.3779 171.9455,32.4862 z m 1156.9219,323.8626 c 0,-14.3156 37.4038,-61.1206 83.004,-104.0704 45.6774,-42.95 83.0124,-95.6558 83.0124,-117.0508 0,-33.5108 -19.9085,-40.0456 -143.7659,-47.0449 -172.0172,-9.6791 -229.9192,-49.1678 -229.9192,-156.4656 0,-104.3874 50.9452,-184.6262 156.6462,-246.5344 90.5505,-53.0167 95.7438,-53.7273 134.7622,-18.4044 48.3859,43.7345 26.8625,81.3371 -58.7037,102.5752 -81.3978,20.2135 -149.6951,92.1146 -149.6951,157.567 0,69.6952 28.984,81.651 197.4912,81.651 131.6846,0 197.0531,30.1326 197.0531,90.8593 0,40.984 -115.8013,212.0021 -168.5787,248.9741 -57.6101,40.3563 -101.3781,43.7406 -101.3065,7.9439 z m 1910.6589,-31.151 c -44.2165,-40.4332 -71.8839,-94.9482 -94.8673,-186.4352 -41.5806,-165.9047 -33.9682,-345.1006 15.1534,-354.3828 30.4472,-5.5103 34.6212,13.1342 32.0583,146.002 -3.6615,206.338 49.0442,316.937 151.8194,316.937 57.3866,0 76.8603,-12.5834 112.1397,-72.6825 34.6981,-59.0008 42.674,-108.3224 42.674,-262.899 0,-201.9322 10.9797,-236.3875 61.7847,-194.2221 42.4506,35.2398 42.4506,288.6196 0,431.4772 -36.5276,122.8749 -135.1289,233.2402 -208.4731,233.2402 -27.4529,0 -78.0313,-25.6469 -112.3663,-57.0348 z m 543.6534,24.5454 c -68.1454,-47.6694 -128.9767,-181.4017 -128.8305,-283.2724 0,-113.5157 60.7533,-214.048 156.8665,-259.9084 66.8315,-31.7787 79.7861,-32.2524 129.7806,-3.932 30.5241,17.1461 58.5609,46.7219 62.22,65.6832 5.1272,28.6343 -3.6591,31.7017 -51.9703,17.7768 -128.2467,-36.7381 -193.174,39.3318 -193.174,226.4008 0,164.0127 77.8851,207.9871 209.9363,118.4692 90.035,-61.0437 143.0325,-81.1834 143.0325,-54.3582 0,56.0072 -72.2479,149.854 -135.7095,176.3685 -90.6968,37.9164 -134.765,37.2827 -192.1516,-3.1505 z m 497.1016,5.5072 c -63.1043,-75.9899 -86.747,-488.272 -29.1363,-507.3072 30.5241,-10.0729 29.1363,-14.0079 88.2801,259.5115 25.3254,116.977 40.6276,226.7146 34.0395,243.9407 -14.7899,38.4673 -62.8087,40.4332 -93.1841,3.935 z m 2396.4082,-12.5865 c -21.958,-24.2286 -43.553,-99.0401 -55.119,-191.1578 -29.866,-238.1166 -14.495,-221.2043 -252.615,-278.6298 -31.4,-7.8639 -57.093,-26.7423 -57.093,-42.6361 0,-21.238 30.524,-28.9481 114.19,-28.9481 h 114.195 v -105.1719 c 0,-106.8302 26.717,-185.4168 63.021,-185.4168 11.058,0 20.059,37.6796 20.059,83.6999 0,192.0194 78.325,267.7724 248.879,240.4795 51.678,-8.2607 86.157,-3.935 95.598,11.0914 25.621,41.4577 -57.462,79.9219 -172.603,79.9219 -78.249,0 -114.336,8.9653 -122.539,30.3664 -6.588,16.7553 13.398,105.8057 44.071,198.0002 68.73,206.338 51.163,289.1704 -40.044,188.4012 z m 515.837,10.3837 c -192.366,-83.7 -232.115,-387.3461 -70.124,-536.1815 159.067,-146.079 369.077,-5.5042 292.362,195.8742 -29.281,76.7776 -125.832,160.1669 -202.034,174.4025 -78.099,14.7095 -86.666,31.5448 -36.817,72.8426 30.379,25.1731 135.932,30.0495 297.995,13.6079 33.673,-3.1443 53.659,6.2949 58.197,28.7143 14.416,70.7997 -214.916,105.0211 -339.579,50.74 z m 116.463,-339.1228 c 48.313,-61.4373 50.799,-87.478 13.103,-139.0826 -43.411,-59.3914 -133.809,-26.8253 -170.703,61.5174 -36.528,87.3181 -36.528,83.5431 0.73,121.1397 40.044,40.0456 105.046,21.9549 156.575,-43.5745 z m 518.544,341.4056 c 0,-14.9494 27.893,-47.8264 62.002,-72.9994 34.037,-25.1731 76.42,-73.8702 94.133,-108.0885 38.359,-74.184 35.139,-75.9931 -154.011,-87.635 -153.717,-9.4392 -209.714,-55.5334 -209.714,-172.6673 0,-128.3821 201.444,-305.6889 292.141,-257.158 54.752,29.2651 42.454,64.8217 -34.187,98.8833 -107.089,47.6695 -122.465,59.0746 -154.161,115.0079 -53.362,94.0037 -12.37,126.0992 176.484,138.2151 178.393,11.4881 213.601,35.9535 189.518,131.8432 -28.77,114.5341 -262.205,305.6119 -262.205,214.5987 z m -7244.356,-57.8223 c -48.6005,-79.8419 -93.9831,-255.6597 -77.2953,-299.2433 19.2501,-50.1062 47.3609,-35.5537 67.5644,34.9291 25.0331,87.3181 55.7033,93.8467 84.2493,18.0937 30.965,-82.0478 150.4279,-141.1255 230.068,-113.7496 80.3729,27.5329 150.3535,173.9286 150.3535,314.5004 0,160.0099 -49.4822,147.8941 -81.9819,-19.9797 -57.0231,-295.2283 -181.3902,-293.6531 -240.612,3.1474 -28.105,140.5717 -72.1737,161.4252 -132.346,62.4588 z m 3935.2928,7.0793 c -54.0946,-104.4643 -101.8186,-297.9788 -79.1292,-320.7152 27.7436,-27.6897 66.1722,-2.3597 66.1722,43.1869 0,19.9827 13.687,54.5149 30.4526,76.6176 29.0583,38.3903 30.524,38.4702 31.1859,1.5752 0.7292,-55.7733 132.7089,-179.5128 191.1958,-179.5128 116.6799,0 197.0534,114.931 217.5454,310.8822 12.373,118.0784 10.615,125.0809 -31.4,125.0809 -34.6205,0 -44.5072,-12.6666 -44.5787,-57.1148 0,-139.5502 -73.863,-295.859 -139.2256,-295.859 -35.5742,0 -102.9213,146.7927 -121.9533,265.5726 -16.7599,105.098 -74.075,119.3367 -120.2651,29.9757 z m 1287.2877,0 c -54.094,-104.4643 -101.819,-297.9788 -79.125,-320.7152 27.744,-27.6897 66.173,-2.3597 66.173,43.1869 0,19.9827 13.687,54.5149 30.524,76.6176 28.986,38.3903 30.447,38.4702 31.108,1.5752 0.733,-55.7733 132.709,-179.5128 191.1945,-179.5128 116.683,0 197.053,114.931 217.553,310.8822 12.366,118.0784 10.612,125.0809 -31.4,125.0809 -34.627,0 -44.508,-12.6666 -44.581,-57.1148 0,-139.5502 -73.861,-295.859 -139.229,-295.859 -35.5735,0 -102.9145,146.7927 -121.9475,265.5726 -16.766,105.098 -74.081,119.3367 -120.27,29.9757 z m -7433.0624,-664.9513 c -5.8574,-9.1283 -2.1958,-29.5757 7.6125,-45.3927 14.6408,-23.7547 23.4986,-24.0716 50.2925,-1.5691 17.8587,14.8694 27.3721,35.2398 21.0795,45.3866 -14.1284,22.8902 -65.2197,24.0717 -78.9845,1.5752 z m 5813.5928,0 c -5.8573,-9.1283 -2.1958,-29.5757 7.5414,-45.3927 14.7119,-23.7547 23.5697,-24.0716 50.3641,-1.5691 17.8585,14.8694 27.3725,35.2398 21.0799,45.3866 -14.128,22.8902 -65.222,24.0717 -78.9854,1.5752 z"
       id="path10262" /><path
       style="fill:#008080;stroke-width:0.999997"
       d="m -738.66585,-1656.2766 c 5.6271,-5.6174 15.924,-8.3114 22.9046,-5.9867 7.242,2.4132 2.8524,6.795 -10.2192,10.2136 -16.0789,4.2048 -19.8595,2.9466 -12.6854,-4.2269 z m 77.3484,-19.3342 c 5.6273,-5.6173 15.9243,-8.3113 22.9049,-5.9867 7.2415,2.4134 2.8523,6.7954 -10.2198,10.2137 -16.0788,4.2048 -19.8595,2.9469 -12.6851,-4.227 z m 79.5918,-21.5046 c 0,-2.0895 6.7484,-6.3896 15.0054,-9.5559 8.605,-3.3012 12.4825,-1.681 9.0982,3.799 -5.6756,9.1857 -24.1036,13.5863 -24.1036,5.7569 z m 77.3481,-29.0009 c 0,-2.0896 6.7489,-6.3897 15.0057,-9.5564 8.6054,-3.3012 12.4822,-1.6806 9.0981,3.7991 -5.6751,9.1859 -24.1038,13.5869 -24.1038,5.7573 z m 77.3487,-34.8688 c 7.9763,-5.1538 18.8535,-9.3707 24.1715,-9.3707 5.3181,0 3.142,4.2169 -4.8343,9.3707 -7.9767,5.154 -18.8538,9.371 -24.1714,9.371 -5.3177,0 -3.1424,-4.217 4.8342,-9.371 z m 67.6802,-32.7998 c 0,-2.0899 6.7487,-6.3901 15.0054,-9.5564 8.6051,-3.3012 12.4821,-1.6806 9.0982,3.7991 -5.6754,9.1856 -24.1036,13.5867 -24.1036,5.7573 z m 67.6798,-39.0219 c 0,-2.6585 8.7014,-9.4897 19.3374,-15.181 10.6351,-5.6909 19.3371,-8.1722 19.3371,-5.5137 0,2.6587 -8.702,9.4897 -19.3371,15.1809 -10.636,5.691 -19.3374,8.1722 -19.3374,5.5138 z m 67.6798,-47.8316 c 0,-2.0074 7.6188,-9.6201 16.92,-16.917 15.3342,-12.0249 15.6729,-11.6828 3.6549,3.6494 -12.6368,16.1033 -20.5749,21.2238 -20.5749,13.2676 z m 58.0115,-58.0015 c 0,-2.0075 7.6188,-9.6203 16.92,-16.9176 15.3345,-12.0242 15.6728,-11.6824 3.6546,3.6502 -12.6365,16.1025 -20.5746,21.2235 -20.5746,13.2674 z m 58.0115,-72.5451 c 0,-5.3169 4.3505,-12.3556 9.668403,-15.6413 5.3177,-3.2861 9.6687,-1.6245 9.6687,3.6923 0,5.3167 -4.351,12.3552 -9.6687,15.6413 -5.317903,3.2861 -9.668403,1.6244 -9.668403,-3.6923 z m 44.127303,-71.6436 c 3.6352,-9.5337 9.0398,-14.8991 12.0176,-11.9224 2.9782,2.9762 0,10.7766 -6.6033,17.3338 -9.5527,9.4762 -10.6548,8.366 -5.4143,-5.4114 z m -27.2078,-51.9037 c 6.6523,-2.6814 17.5295,-2.6814 24.1717,0 6.652,2.6821 1.2082,4.8761 -12.0855,4.8761 -13.2944,0 -18.7283,-2.194 -12.0862,-4.8761 z m 77.3491,0 c 6.6517997,-2.6814 17.5289997,-2.6814 24.1711,0 6.6518,2.6821 1.2089,4.8761 -12.0858003,4.8761 -13.2941997,0 -18.7278997,-2.194 -12.0852997,-4.8761 z m -164.366003,-9.6666 c 6.6521,-2.6816 17.5292,-2.6816 24.1716,0 6.652,2.6817 1.2087,4.8757 -12.0857,4.8757 -13.2942,0 -18.7276,-2.194 -12.0859,-4.8757 z m 251.382603,0 c 6.6523,-2.6816 17.5292,-2.6816 24.1716,0 6.651997,2.6817 1.2086,4.8757 -12.0857,4.8757 -13.2944,0 -18.7283,-2.194 -12.0859,-4.8757 z m -328.730703,-9.6669 c 6.6517,-2.682 17.529,-2.682 24.1709,0 6.6522,2.6814 1.2088,4.8758 -12.0855,4.8758 -13.2945,0 -18.7278,-2.1944 -12.0854,-4.8758 z m 224.794103,-2.124 c 0,-5.3168 4.3505,-12.3556 9.6682,-15.6415 5.3178,-3.2859 9.6691,-1.6239 9.6691,3.6927 0,5.3171 -4.3513,12.3556 -9.6691,15.6416 -5.3177,3.2858 -9.6682,1.6245 -9.6682,-3.6928 z m 183.702397,-1.1408 c 7.9764,-5.154 18.85374,-9.3709 24.17164,-9.3709 5.3175,0 3.142,4.2169 -4.8343,9.3709 -7.97674,5.154 -18.85384,9.371 -24.17194,9.371 -5.3174,0 -3.1419,-4.217 4.8346,-9.371 z m -487.7019,-18.4324 c -2.9868,-4.821 3.2876,-6.4885 13.9332,-3.7058 22.5757,5.9025 25.4278,12.471 5.4141,12.471 -7.6673,0 -16.369,-3.9441 -19.3473,-8.7652 z m 565.05044,-0.9022 c 7.9765,-5.154 18.8538,-9.3708 24.1712,-9.3708 5.3177,0 3.1426,4.2168 -4.8341,9.3708 -7.9764,5.1545 -18.8535,9.371 -24.1713,9.371 -5.3177,0 -3.1422,-4.2165 4.8342,-9.371 z m -638.12514,-29.0007 c -7.9767,-5.154 -10.1518,-9.3709 -4.8341,-9.3709 5.3174,0 16.1946,4.2169 24.1712,9.3709 7.9764,5.154 10.1524,9.371 4.8343,9.371 -5.3179,0 -16.1951,-4.217 -24.1714,-9.371 z m 705.80494,5.961 c 0,-2.0383 8.7114,-5.9826 19.3469,-8.7658 10.645,-2.7826 16.9199,-1.1148 13.9324,3.7062 -5.202,8.4189 -33.2793,12.6875 -33.2793,5.0596 z m -298.19743729,-44.6289 c 0,-13.2921 2.19439999,-18.7298 4.87279999,-12.0839 2.688,6.6462 2.688,17.5216 0,24.1678 -2.6784,6.6459 -4.87279999,1.2081 -4.87279999,-12.0839 z m 385.21433729,9.667 c 18.9312,-12.2344 31.7327,-12.2344 24.1718,0 -3.2875,5.3168 -13.3331,9.6003 -22.3247,9.519 -14.087,-0.1279 -14.3483,-1.4432 -1.8471,-9.519 z m -860.50154,-9.667 c -8.7118,-5.6306 -9.9104,-9.4299 -2.9878,-9.519 6.333,-0.08 14.2032,4.2022 17.4903,9.519 7.4158,12.002 4.0703,12.002 -14.5025,0 z m 935.26864,-20.5335 c 6.5651,-6.6066 14.3676,-9.5766 17.3358,-6.6004 2.978,2.9765 -2.3879,8.3819 -11.9213,12.0118 -13.778,5.2463 -14.8896,4.1361 -5.4145,-5.4114 z m -1004.18634,-35.0516 c -12.0184,-15.3325 -11.6796,-15.6743 3.6549,-3.6498 9.3007,7.297 16.92,14.9096 16.92,16.9171 0,7.9562 -7.9381,2.8356 -20.5749,-13.2673 z m 1081.53484,-3.6164 c 6.5652,-6.6065 14.3677,-9.5765 17.336,-6.6004 2.9777,2.9766 -2.3885,8.3817 -11.9214,12.0119 -13.7774,5.2464 -14.8902,4.136 -5.4146,-5.4115 z M 9.5842527,-2321.6694 c 0,-13.292 2.1949003,-18.7298 4.8730003,-12.0839 2.6877,6.6462 2.6877,17.5214 0,24.1677 -2.6781,6.6457 -4.8730003,1.2079 -4.8730003,-12.0838 z m 597.9231373,-19.3343 c 7.9768,-5.154 18.8539,-9.371 24.1716,-9.371 5.3174,0 3.1422,4.217 -4.8344,9.371 -7.9769,5.1544 -18.854,9.3709 -24.1714,9.3709 -5.3181,0 -3.1426,-4.2165 4.8342,-9.3709 z m -1212.59224,-15.8674 c -5.0954,-13.2677 -3.6744,-13.8659 8.6338,-3.6499 16.7748,13.9215 18.525,19.5173 6.091,19.5173 -4.7471,0 -11.3697,-7.1403 -14.7248,-15.8674 z m 1280.27224,-16.7835 c 0,-2.0072 7.6189,-9.6199 16.9198,-16.9168 15.3345,-12.0244 15.673,-11.6828 3.6547,3.65 -12.6369,16.1027 -20.5745,21.2233 -20.5745,13.2668 z m -675.27153729,-35.0178 c 0,-13.292 2.19439999,-18.7295 4.87279999,-12.0838 2.688,6.6464 2.688,17.5215 0,24.1676 -2.6784,6.6458 -4.87279999,1.2082 -4.87279999,-12.0838 z m -649.32140271,-9.667 c -5.6948,-10.6336 -8.1699,-19.3338 -5.5113,-19.3338 2.6588,0 9.4849,8.7002 15.1797,19.3338 5.6947,10.6338 8.1698,19.3341 5.5112,19.3341 -2.6593,0 -9.4849,-8.7003 -15.1796,-19.3341 z m 1401.94134,-9.6665 c 7.9764,-5.1545 18.8538,-9.371 24.1712,-9.371 5.3181,0 3.1426,4.2165 -4.8341,9.371 -7.9768,5.1539 -18.8535,9.3709 -24.1714,9.3709 -5.3176,0 -3.1421,-4.217 4.8343,-9.3709 z m 58.0115,-33.1542 c 0,-2.6589 8.7015,-9.4898 19.337,-15.181 10.6356,-5.6909 19.337,-8.1722 19.337,-5.5135 0,2.6584 -8.7014,9.4898 -19.337,15.1807 -10.6355,5.6906 -19.337,8.1722 -19.337,5.5138 z m -828.160837,-20.4313 c -3.1517,-8.2044 -3.5677,-17.0774 -0.9667,-19.7174 2.6492,-2.6401 7.1257,4.0728 9.9584997,14.9173 6.0333,23.0356 -0.6771,26.5929 -9.0305997,4.8001 z m -664.433303,-9.6241 c -9.3301,-24.3092 -6.5841,-30.5815 4.8152,-10.9846 5.6463,9.703 8.228,19.6783 5.7334,22.1675 -2.4848,2.4892 -7.2418,-2.5433 -10.5486,-11.1829 z m 1560.27404,-17.9257 c 0,-2.0896 6.7485,-6.3898 15.0054,-9.5563 8.6051,-3.301 12.4824,-1.6805 9.0982,3.7993 -5.6755,9.1855 -24.1036,13.5862 -24.1036,5.757 z m -933.412637,-45.1785 c -3.5098,-5.6706 -4.3024,-12.3835 -1.7692,-14.9178 2.533,-2.5337 7.1836,2.1057 10.335,10.3102 6.5363,17.0343 0.9676,20.0307 -8.5658,4.6076 z m 1017.848037,-10.2235 c 6.5649,-6.6068 14.3675,-9.5771 17.3357,-6.6004 2.9783,2.9761 -2.3879,8.3815 -11.9213,12.0118 -13.7775,5.246 -14.8896,4.136 -5.4144,-5.4114 z m -1649.97904,-14.1066 c 0.4837,-11.2614 2.7558,-13.5521 5.8401,-5.8404 2.7942,6.9784 2.4464,15.316 -0.7737,18.5283 -3.2097,3.2125 -5.4918,-2.4972 -5.0758,-12.6879 z m 1717.65895,-34.2284 c 6.5647,-6.6069 14.3678,-9.5769 17.336,-6.6004 2.9775,2.9761 -2.3884,8.3817 -11.9218,12.012 -13.7775,5.2459 -14.8891,4.1357 -5.4142,-5.4116 z m -1139.54655,-15.7174 c -12.0176,-15.3327 -11.6796,-15.6744 3.6552,-3.65 9.301103,7.297 16.919903,14.9096 16.919903,16.917 0,7.9566 -7.9382,2.8357 -20.575103,-13.267 z m 1659.99465,-130.5043 c -41.167,-81.0819 -77.8398,-150.5864 -81.4939,-154.4552 -3.6659,-3.8685 -32.0044,10.5478 -62.9726,32.036 -53.4674,37.0866 -79.7758,44.3166 -55.6911,15.3012 14.0772,-16.9669 61.0472,-104.9897 57.325,-107.4405 -3.5678,-2.3544 -253.4519,-104.8894 -295.6359,-121.3087 -38.6546,-15.0502 -36.1603,-26.8418 10.8582,-51.2364 33.579,-17.4225 44.1272,-17.9131 163.7658,-7.6084 70.3388,6.0574 148.0162,13.5513 172.6224,16.6535 l 44.7467,5.6394 55.4591,-74.9848 c 30.5038,-41.2418 109.5335,-137.5017 175.6188,-213.9116 95.7765,-110.7413 116.8751,-140.1863 103.9763,-145.1356 -8.9039,-3.415 -23.5039,-1.6376 -32.4565,3.9506 -22.5566,14.0881 -48.8466,-2.4916 -48.8466,-30.8102 0,-27.5614 -48.2068,-49.7863 -67.2722,-31.0107 -8.6548,8.5267 -14.8245,6.5817 -25.7492,-8.1229 -8.1685,-11.0018 -25.6011,-19.334 -40.4345,-19.334 -14.3475,0 -26.7727,-3.9586 -27.6219,-8.7977 -2.9305,-16.5837 -33.0377,-26.409 -61.665,-20.1219 -21.7845,4.7828 -28.6399,2.8254 -28.6399,-8.1771 0,-10.1193 -48.6618,-30.6823 -161.9582,-68.4371 -89.0763,-29.6839 -169.306,-53.9711 -178.2978,-53.9711 -31.5582,0 -30.3111,-22.0814 2.7945,-49.5369 38.4225,-31.8522 77.2321,-34.4471 259.678,-17.3606 l 110.7536,10.3728 52.2204,-53.9069 c 28.7256,-29.6491 57.6149,-53.9064 64.1996,-53.9064 12.8098,0 43.9811,30.3849 43.9811,42.8666 0,4.1311 -11.5153,21.1889 -25.5828,37.9068 l -25.5829,30.3959 37.6698,6.6935 c 20.7174,3.681 55.825,6.9439 78.0154,7.2503 37.2054,0.5145 43.8636,-3.5698 85.7685,-52.6109 48.1603,-56.3643 68.85,-64.1135 94.7619,-35.4903 22.0245,24.3367 20.3726,32.5156 -13.0221,64.5139 -36.8883,35.328 -29.461,39.8581 79.4268,48.4745 l 86.0212,6.8076 161.4157,-158.5608 c 88.7766,-87.2087 177.8424,-166.2481 197.9169,-175.6433 20.5356,-9.6089 52.2573,-15.7753 72.5127,-14.0957 l 36.0152,2.9856 -1.5747,46.0519 c -1.0362,30.2503 -10.4322,61.166 -27.3912,90.1003 -25.4381,43.3947 -189.5727,247.1728 -252.5731,313.5655 l -32.2934,34.0374 15.4885,91.6327 c 8.5194,50.3984 16.9897,93.2997 18.8165,95.3366 1.827,2.0367 19.1239,-10.1709 38.4417,-27.1283 32.1583,-28.2241 36.8857,-29.666 55.9235,-17.0489 34.0806,22.5863 29.6052,42.2632 -22.0243,96.8513 -53.4875,56.5418 -54.0008,58.5224 -38.2296,149.0537 l 10.7982,62.0096 30.7559,-29.8006 c 34.8372,-33.7588 46.2076,-36.2093 67.8169,-14.6095 24.0939,24.0965 18.3977,40.5754 -32.7182,94.6157 l -47.9085,50.6475 18.0999,115.5291 c 34.013,217.0719 33.8592,210.307 5.6157,255.0344 -22.2856,35.3092 -43.922,45.0608 -43.922,19.7993 0,-25.1573 -132.7422,-316.6006 -152.5706,-334.9714 -12.7727,-11.8332 -20.3726,-26.127 -16.8818,-31.7638 9.3685,-15.156 -3.8381,-48.7438 -19.164,-48.7438 -18.6193,0 -28.2984,-18.9944 -15.9712,-31.3247 13.5631,-13.5552 -3.3835,-46.0111 -24.0172,-46.0111 -11.303,0 -13.6805,-6.0688 -9.2823,-23.6136 3.2602,-12.9877 0.8701,-34.6555 -5.2498,-48.1508 -8.6151,-18.8933 -16.1839,-23.2807 -32.9488,-19.0745 -27.945,7.0114 -45.9955,-20.5997 -30.1008,-46.0429 8.1719,-13.0869 7.7566,-20.313 -1.7191,-29.6323 -10.2109,-10.0376 -35.2926,11.1555 -135.1196,114.1939 -67.4293,69.5855 -154.7451,154.9354 -194.048,189.6666 l -71.4488,63.1477 27.3513,158.3445 c 15.0426,87.0891 26.9853,168.3235 26.5298,180.5215 -1.2179,32.5239 -22.6822,79.3257 -36.3717,79.3257 -6.5262,0 -45.5493,-66.3397 -86.7097,-147.4212 z m -2223.74875,105.9197 c 3.6354,-9.5339 9.0403,-14.8988 12.0177,-11.9226 2.9782,2.9767 0,10.7766 -6.6036,17.3344 -9.5523,9.4762 -10.6545,8.3656 -5.4141,-5.4118 z m 507.2608,-25.7895 c -7.8219,-4.9464 -11.7084,-11.5101 -8.6339,-14.5862 3.0841,-3.0758 11.0995,1.0378 17.8286,9.1412 13.9518,16.8034 11.2737,18.3871 -9.1947,5.445 z m 1314.64445,-23.5111 c 0,-2.0894 6.7488,-6.3896 15.0054,-9.5559 8.605,-3.3012 12.4823,-1.6809 9.098,3.7991 -5.6754,9.1856 -24.1034,13.5862 -24.1034,5.7568 z m -1779.01555,-9.8206 c 0,-1.8409 6.526,-8.762 14.5029,-15.3809 8.3633,-6.9364 14.5028,-7.876 14.5028,-2.2179 0,5.399 -6.5265,12.3202 -14.5028,15.3806 -7.9769,3.0603 -14.5029,4.0583 -14.5029,2.2182 z m 391.6443,-15.2704 c -3.384,-5.4796 0.4833,-7.1003 9.0981,-3.799 16.7461,6.4264 19.8111,13.3555 5.9073,13.3555 -5.0082,0 -11.7569,-4.3002 -15.0054,-9.5565 z m -316.5391,-30.7398 c 5.6272,-5.6177 15.9244,-8.3117 22.9049,-5.9871 7.2416,2.4136 2.8524,6.7957 -10.2195,10.2137 -16.079,4.2048 -19.8594,2.9472 -12.6854,-4.2266 z m 243.9572,1.6284 c -7.9764,-5.154 -10.1519,-9.3708 -4.8345,-9.3708 5.3181,0 16.1952,4.2168 24.1717,9.3708 7.9765,5.154 10.1519,9.3709 4.8345,9.3709 -5.3181,0 -16.1952,-4.2169 -24.1717,-9.3709 z m 1527.63305,5.7138 c 0,-1.8408 6.5261,-8.7619 14.5025,-15.3807 8.3633,-6.9365 14.5028,-7.876 14.5028,-2.218 0,5.3989 -6.5261,12.3202 -14.5028,15.3809 -7.9764,3.0602 -14.5025,4.058 -14.5025,2.2178 z m -1684.13805,-31.6511 c 6.971,-2.7927 15.3153,-2.4496 18.5248,0.7626 3.2105,3.2124 -2.4942,5.4966 -12.6851,5.0771 -11.2634,-0.4639 -13.5552,-2.7546 -5.8397,-5.8402 z m 1742.14925,-17.2238 c 0,-2.4716 9.7942,-9.7089 21.754,-16.0834 19.7239,-10.5091 20.5167,-10.09 8.4891,4.4935 -12.3564,14.9743 -30.2431,21.8286 -30.2431,11.5899 z"
       id="path14514" /></g></svg>
