<?xml version="1.0" encoding="UTF-8" standalone="no"?>
<!-- Created with Inkscape (http://www.inkscape.org/) -->

<svg
   version="1.1"
   id="svg1109"
   width="13020.82"
   height="2833.2104"
   viewBox="0 0 13020.82 2833.2105"
   xml:space="preserve"
   xmlns="http://www.w3.org/2000/svg"
   xmlns:svg="http://www.w3.org/2000/svg"><defs
     id="defs1113"><linearGradient
       id="linearGradient13758"><stop
         style="stop-color:#77c459;stop-opacity:1;"
         offset="0"
         id="stop13756" /></linearGradient></defs><g
     id="g15018"
     transform="translate(-415.04419,2953.1889)"><g
       id="g9648"
       transform="matrix(2.8628958,0,0,3.0766405,-29425.818,-40024.435)"
       style="fill:#77c459;fill-opacity:1;stroke-width:0.336945"><path
         style="fill:#77c459;fill-opacity:1;stroke:#800080;stroke-width:2.12036;stroke-dasharray:none"
         d="m 14676.904,12808.003 c -6.965,-7.696 -6.77,-8.85 3.042,-18.068 l 10.481,-9.847 8.207,9.068 c 7.921,8.754 7.923,9.384 0.06,18.069 -10.02,11.072 -12.401,11.158 -21.794,0.778 z"
         id="path9610" /><path
         style="fill:#77c459;fill-opacity:1;stroke:#800080;stroke-width:2.12036;stroke-dasharray:none"
         d="m 13873.802,12810.276 -9.803,-10.434 10.514,-9.877 c 10.187,-9.571 10.745,-9.62 18.023,-1.578 9.606,10.613 9.461,15.678 -0.712,24.883 -7.695,6.965 -8.847,6.773 -18.022,-2.994 z"
         id="path9612" /><path
         style="fill:#77c459;fill-opacity:1;stroke:#800080;stroke-width:2.12036;stroke-dasharray:none"
         d="m 14909.046,12921.234 c -3.093,-1.248 -5.624,-5.973 -5.624,-10.498 0,-6.794 3.332,-8.101 19.123,-7.499 26.557,1.011 27.295,-6.394 1.842,-18.478 -20.558,-9.761 -21.437,-10.939 -20.107,-26.964 1.104,-13.288 4.034,-18.02 14.148,-22.845 21.223,-10.124 55.416,-0.105 49.779,14.59 -2.284,5.95 -5.859,7.096 -14.775,4.735 -31.981,-8.469 -35.263,2.971 -5.015,17.48 16.014,7.682 20.553,12.383 21.709,22.484 2.243,19.595 -10.027,30.045 -34.78,29.619 -11.371,-0.193 -23.206,-1.376 -26.3,-2.624 z"
         id="path9614" /><path
         style="fill:#77c459;fill-opacity:1;stroke:#800080;stroke-width:2.12036;stroke-dasharray:none"
         d="m 14821.757,12885.967 c -0.369,-21.035 -0.878,-40.769 -1.125,-43.852 -0.283,-3.551 9.205,-6.811 25.907,-8.898 35.888,-4.482 51.12,4.331 39.414,22.802 -3.167,4.999 -6.243,4.803 -17.705,-1.124 -7.63,-3.946 -14.985,-7.174 -16.346,-7.174 -1.36,0 -2.473,17.211 -2.473,38.246 v 38.246 h -13.499 -13.498 z"
         id="path9616" /><path
         id="path9618"
         style="fill:#77c459;fill-opacity:1;stroke:#800080;stroke-width:2.12036;stroke-dasharray:none"
         d="m 14768.971,12830.801 c -5.689,-0.08 -12.143,0.976 -19.412,3.154 -14.042,4.207 -19.261,8.804 -24.655,21.712 -9.047,21.654 -5.015,45.472 9.89,58.422 18.287,15.891 65.141,12.13 65.141,-5.228 0,-4.459 -5.088,-5.467 -19.432,-3.85 -14.375,1.619 -21.402,0.22 -26.996,-5.374 -14.829,-14.829 -9.582,-20.418 19.166,-20.418 14.702,0 27.838,-1.793 29.19,-3.983 1.354,-2.189 -0.21,-11.69 -3.474,-21.116 -5.346,-15.445 -14.882,-23.107 -29.418,-23.319 z m -4.615,16.92 c 9.657,0 15.286,13.826 7.611,18.695 -9.066,5.753 -26.026,4.42 -26.026,-2.045 0,-8.186 9.36,-16.65 18.415,-16.65 z" /><path
         style="fill:#77c459;fill-opacity:1;stroke:#800080;stroke-width:2.12036;stroke-dasharray:none"
         d="m 14678.4,12896.091 c -0.02,-15.467 -1.304,-35.715 -2.839,-44.995 -2.726,-16.5 -2.475,-16.874 11.299,-16.874 h 14.087 v 44.996 44.995 h -11.249 c -10.793,0 -11.251,-1.137 -11.298,-28.122 z"
         id="path9620" /><path
         style="fill:#77c459;fill-opacity:1;stroke:#800080;stroke-width:2.12036;stroke-dasharray:none"
         d="m 14611.247,12915.754 c -2.634,-4.921 -4.788,-22.242 -4.788,-38.491 0,-16.695 -1.957,-29.542 -4.5,-29.542 -7.396,0 -5.182,-8.159 7.347,-27.093 14.923,-22.551 24.149,-23.375 24.149,-2.154 0,13.799 1.393,15.748 11.249,15.748 7,0 11.248,2.55 11.248,6.75 0,4.199 -4.248,6.749 -11.248,6.749 -10.845,0 -11.249,1.05 -11.249,29.247 0,28.42 0.328,29.247 11.579,29.247 8.596,0 11.194,2.029 10.085,7.874 -2.329,12.279 -37.477,13.613 -43.872,1.665 z"
         id="path9622" /><path
         style="fill:#77c459;fill-opacity:1;stroke:#800080;stroke-width:2.12036;stroke-dasharray:none"
         d="m 14493.972,12895.529 c 0,-15.777 -1.259,-34.981 -2.798,-42.677 -2.171,-10.859 -1.026,-14.671 5.111,-17.027 4.35,-1.668 11.178,-0.973 15.172,1.547 5.194,3.276 10.094,2.727 17.203,-1.932 11.427,-7.487 33.606,-4.346 42.167,5.971 5.67,6.831 13.247,67.219 9.685,77.178 -1.108,3.093 -7.871,5.624 -15.03,5.624 h -13.017 v -35.621 c 0,-38.073 -1.462,-40.419 -23.217,-37.226 l -12.778,1.876 v 35.486 c 0,34.851 -0.201,35.485 -11.249,35.485 -10.822,0 -11.249,-1.087 -11.249,-28.684 z"
         id="path9624" /><path
         id="path9626"
         style="fill:#77c459;fill-opacity:1;stroke:#800080;stroke-width:2.12036;stroke-dasharray:none"
         d="m 14426.994,12831.973 c -32.199,0 -43.258,11.634 -43.258,45.508 0,21.827 1.608,26.397 12.624,35.873 12.546,10.791 37.837,14.521 54.666,8.064 21.313,-8.179 27.312,-56.219 9.592,-76.821 -9.237,-10.738 -14.262,-12.624 -33.624,-12.624 z m -1.237,15.448 c 5.625,0.02 11.785,3.761 17.088,11.855 5.941,9.066 6.688,15.125 3.477,28.122 -3.507,14.196 -6.103,16.764 -18.142,17.936 -16.027,1.56 -19.697,-4.045 -19.697,-30.084 0,-17.598 7.897,-27.87 17.274,-27.829 z" /><path
         style="fill:#77c459;fill-opacity:1;stroke:#800080;stroke-width:2.12036;stroke-dasharray:none"
         d="m 14304.246,12888.217 c -0.413,-19.798 -0.919,-39.527 -1.125,-43.843 -0.298,-6.229 5.105,-8.612 26.189,-11.557 23.517,-3.284 27.604,-2.67 35.625,5.352 7.483,7.483 8.068,10.26 3.355,15.937 -5.104,6.152 -7.097,6.158 -18.885,0.06 -7.247,-3.748 -15.143,-5.6 -17.545,-4.116 -2.402,1.485 -4.367,18.779 -4.367,38.43 0,35.113 -0.195,35.731 -11.249,35.731 -10.998,0 -11.265,-0.799 -11.998,-35.997 z"
         id="path9628" /><path
         style="fill:#77c459;fill-opacity:1;stroke:#800080;stroke-width:2.12036;stroke-dasharray:none"
         d="m 14191.54,12857.845 c -1.083,-36.503 -1.189,-67.887 -0.234,-69.743 2.613,-5.083 90.237,-4.061 93.42,1.09 1.517,2.454 0.781,7.997 -1.635,12.315 -3.67,6.557 -9.651,7.609 -36.239,6.381 l -31.845,-1.47 v 18.401 18.402 h 26.996 c 25.938,0 26.997,0.45 26.997,11.473 0,11.381 -0.216,11.448 -27.447,8.366 l -27.447,-3.105 0.987,26.504 c 1.382,37.06 1.183,37.754 -10.835,37.754 h -10.748 z"
         id="path9630" /><path
         style="fill:#77c459;fill-opacity:1;stroke:#800080;stroke-width:2.12036;stroke-dasharray:none"
         d="m 13921.699,12892.717 c -0.464,-17.324 -0.97,-37.037 -1.125,-43.809 -0.302,-13.244 13.685,-20.351 19.986,-10.154 2.515,4.068 6.244,3.518 14.98,-2.205 13.113,-8.592 34.715,-6.155 43.937,4.957 5.315,6.405 12.737,67.912 9.401,77.918 -0.878,2.635 -7.416,4.789 -14.529,4.789 h -12.935 l -1.314,-34.871 -1.314,-34.872 -16.873,-1.396 -16.873,-1.397 v 36.268 c 0,35.686 -0.181,36.268 -11.249,36.268 -10.847,0 -11.279,-1.124 -12.092,-31.496 z"
         id="path9632" /><path
         style="fill:#77c459;fill-opacity:1;stroke:#800080;stroke-width:2.12036;stroke-dasharray:none"
         d="m 13872.999,12896.091 c -0.02,-15.467 -1.304,-35.715 -2.839,-44.995 -2.726,-16.5 -2.476,-16.874 11.299,-16.874 h 14.087 v 44.996 44.995 h -11.249 c -10.793,0 -11.251,-1.137 -11.298,-28.122 z"
         id="path9634" /><path
         style="fill:#77c459;fill-opacity:1;stroke:#800080;stroke-width:2.12036;stroke-dasharray:none"
         d="m 13788.684,12921.234 c -3.093,-1.248 -5.624,-6.112 -5.624,-10.809 0,-7.558 2.375,-8.211 20.708,-5.699 18.559,2.544 20.539,1.968 19.091,-5.551 -0.959,-4.981 -7.706,-10.135 -16.605,-12.689 -18.037,-5.172 -29.7,-21.162 -26.047,-35.711 2.726,-10.864 19.35,-21.052 34.349,-21.052 14.542,0 31.946,10.117 30.406,17.676 -1.391,6.825 -9.788,8.152 -27.689,4.373 -17.61,-3.718 -12.046,9.626 7.507,18.007 40.753,17.47 32.193,54.952 -12.35,54.079 -9.966,-0.193 -20.653,-1.376 -23.746,-2.624 z"
         id="path9636" /><path
         style="fill:#77c459;fill-opacity:1;stroke:#800080;stroke-width:2.12036;stroke-dasharray:none"
         d="m 13698.695,12921.234 c -3.093,-1.248 -5.624,-7.113 -5.624,-13.033 0,-9.694 1.146,-10.326 11.541,-6.374 6.349,2.414 16.62,4.388 22.828,4.388 15.907,0 12.265,-13.754 -5.123,-19.337 -7.424,-2.385 -17.041,-7.422 -21.372,-11.194 -15.517,-13.519 -7.038,-38.954 14.57,-43.7 16.702,-3.668 45.047,5.127 45.047,13.977 0,8.93 -9.726,11.948 -22.846,7.089 -11.698,-4.333 -22.148,-2.524 -22.148,3.834 0,2.154 9.547,8.138 21.215,13.3 22.547,9.972 28.1,15.515 28.21,28.157 0.133,15.213 -16.325,25.899 -39.301,25.517 -11.755,-0.193 -23.904,-1.376 -26.997,-2.624 z"
         id="path9638" /><path
         id="path9640"
         style="fill:#77c459;fill-opacity:1;stroke:#800080;stroke-width:2.12036;stroke-dasharray:none"
         d="m 13631.65,12830.786 c -24.65,-0.389 -42.065,18.363 -42.065,49.243 0,17.46 2.316,24.413 11.043,33.141 8.387,8.386 15.819,11.042 30.889,11.042 36.174,0 53.593,-25.72 43.302,-63.943 -3.812,-14.154 -8.044,-19.093 -20.986,-24.501 -7.813,-3.265 -15.282,-4.873 -22.183,-4.982 z m 2.398,17.23 c 5.673,-0.01 10.88,2.82 13.871,8.409 6.321,11.81 5.885,37.762 -0.744,44.391 -8.265,8.265 -25.229,6.424 -30.437,-3.305 -6.885,-12.866 -5.656,-34.652 2.412,-42.721 4.525,-4.524 9.894,-6.76 14.898,-6.774 z" /><path
         style="fill:#77c459;fill-opacity:1;stroke:#800080;stroke-width:2.12036;stroke-dasharray:none"
         d="m 13513.054,12902.841 c -0.02,-11.756 -1.279,-31.695 -2.796,-44.311 l -2.755,-22.937 26.403,-2.724 c 32.444,-3.349 50.184,4.862 41.287,19.107 -4.908,7.86 -6.412,8.024 -18.11,1.974 -7.017,-3.628 -14.724,-5.382 -17.126,-3.897 -2.402,1.484 -4.367,18.777 -4.367,38.43 0,35.113 -0.194,35.73 -11.248,35.73 -10.415,0 -11.251,-1.585 -11.288,-21.372 z"
         id="path9642" /><path
         style="fill:#77c459;fill-opacity:1;stroke:#800080;stroke-width:2.12036;stroke-dasharray:none"
         d="m 13411.855,12919.921 c -45.187,-18.692 -48.665,-99.999 -5.405,-126.376 18.804,-11.467 45.419,-11.24 64.492,0.548 16.322,10.089 18.912,17.91 8.728,26.362 -5.01,4.159 -9.42,3.785 -20.023,-1.699 -19.119,-9.887 -33.355,-8.755 -44.936,3.572 -21.787,23.194 -14.942,63.358 12.754,74.831 13.108,5.43 33.57,4.506 50.757,-2.291 13.668,-5.405 10.213,17.836 -3.586,24.124 -13.051,5.947 -49.351,6.483 -62.781,0.929 z"
         id="path9644" /><path
         id="path9646"
         style="fill:#77c459;fill-opacity:1;stroke:#800080;stroke-width:2.12036;stroke-dasharray:none"
         d="m 14063.275,12830.854 c -32.27,0 -50.486,58.482 -22.691,84.378 10.478,9.762 30.43,11.712 44.235,4.324 7.705,-4.125 8.704,-3.113 8.704,8.839 0,21.232 -20.107,27.709 -50.039,16.121 -10.814,-4.185 -15.502,11.703 -5.592,18.95 v 0 c 9.268,6.776 48.167,7.647 59.951,1.339 13.189,-7.058 18.176,-29.537 18.176,-81.941 v -49.005 l -16.873,0.396 c -9.28,0.217 -22.439,-0.949 -29.239,-2.591 -2.267,-0.547 -4.481,-0.807 -6.632,-0.808 z m 13.075,16.755 c 7.022,-0.351 10.421,9.395 10.421,29.422 0,24.037 -1.027,27.081 -9.561,28.298 -22.261,3.177 -32.708,-31.085 -14.908,-48.887 5.698,-5.697 10.369,-8.65 14.048,-8.833 z" /></g><g
       id="g14992"><path
         style="fill:#77c459;fill-opacity:1;stroke:none;stroke-width:6.29289;stroke-dasharray:none"
         d="m 415.17749,-244.91918 c 2.11701,-8.36109 120.46485,-347.43428 262.99142,-753.49858 142.52981,-406.06334 261.61337,-745.45804 264.62687,-754.20804 3.79633,-11.0112 30.96582,54.0735 88.26632,211.4403 45.5299,125.0429 85.4331,224.0558 88.6683,220.0271 3.2385,-4.0271 124.8305,-365.7803 270.2049,-803.8949 145.3728,-438.1137 266.5002,-793.8003 269.1678,-790.4146 2.6692,3.3857 164.9748,488.877 360.68,1078.8642 195.7043,589.9871 358.377,1077.95716 361.4887,1084.3738 3.7062,7.64003 32.0848,-32.35567 82.1565,-115.79194 l 76.4909,-127.46321 181.8516,378.58824 c 100.0199,208.22674 181.8507,380.52303 181.8507,382.88408 0,2.36258 -560.7644,4.2934 -1246.1449,4.2934 -1182.91487,0 -1245.95089,-0.77051 -1242.29911,-15.19985 z"
         id="path9555" /><path
         style="fill:#77c459;fill-opacity:1;stroke-width:1"
         d="m 4482.206,-674.56699 c -46.9172,-22.49944 -37.5526,-25.95754 96.9892,-36.26438 119.6805,-9.20524 159.5062,-21.39492 202.693,-61.9881 100.1355,-94.1606 114.7019,-288.77653 41.5034,-553.95833 -41.5034,-150.3278 -69.4681,-167.8707 -181.0953,-113.8234 -121.5872,58.9176 -211.3991,56.4749 -275.2331,-7.0794 -67.487,-67.4984 -66.173,-156.0749 3.6617,-238.9902 123.1217,-146.2358 344.0398,-191.8625 396.4509,-81.9649 51.7526,108.4793 172.3807,566.308 184.9745,702.0032 16.3959,176.12843 -35.1391,312.37744 -138.1318,365.63105 -85.4947,44.21749 -264.9066,58.60997 -331.6636,26.67446 z m 96.0387,-821.41671 c 74.2235,-60.336 117.4102,-144.9006 103.0642,-201.8523 -14.8584,-59.2345 -46.4819,-64.271 -145.1545,-23.0533 -119.8981,50.0354 -171.0694,162.3667 -104.3812,229.0744 42.0875,42.0853 91.2062,40.6732 146.4715,-3.935 z m -400.3273,152.9244 c -41.5034,-87.0044 -51.2401,-89.3641 -130.445,-30.8372 -32.5711,24.1486 -100.5764,48.454 -151.0807,54.1981 -76.8602,8.6546 -101.6042,1.5753 -152.6954,-42.0823 -53.9484,-46.4111 -60.7592,-65.4463 -59.8059,-166.5324 2.1959,-221.6781 188.9282,-417.8693 357.2149,-375.1533 112.6579,28.5513 149.4747,96.6773 183.4372,339.5166 16.3987,117.3676 34.2603,220.4966 39.6769,229.3082 5.1217,8.8084 -3.6616,27.2928 -20.421,41.1408 -25.0389,20.7642 -36.3817,12.2696 -65.881,-49.5585 z m -214.992,-84.8784 c 90.1125,-46.6511 124.808,-110.2114 124.808,-229.1512 0,-133.6524 -33.3786,-183.8386 -109.5087,-164.7264 -106.6486,26.7482 -222.0834,190.5271 -222.5959,315.8417 0,36.4212 76.488,109.03 115.0656,109.03 17.7155,0 59.2218,-14.0049 92.231,-30.9941 z m 3245.6019,-41.6977 c 6.5876,-114.1403 30.9651,-282.3249 54.6069,-373.6518 49.4852,-190.8441 157.6768,-425.5764 196.1771,-425.5764 68.8841,0 190.7605,213.2604 301.7292,527.9178 81.1058,229.7788 104.7476,332.3571 84.401,365.3171 -25.9836,42.0085 -51.6037,9.1285 -111.192,-142.6945 -61.7784,-157.4071 -45.5286,-147.1034 -283.5756,-180.2204 l -93.9888,-13.1404 -57.2408,203.8182 c -80.1553,285.0847 -105.1856,295.6252 -90.917,38.2304 z m 420.6826,-358.0779 c -21.5234,-91.1763 -120.2675,-316.5495 -138.716,-316.5495 -14.93,0 -101.5268,248.3466 -101.5268,291.2964 0,45.3159 71.7327,82.3617 159.5034,82.3617 92.1594,0 93.9144,-1.5722 80.7394,-57.1086 z m 426.0188,526.3455 c -24.0053,-28.8681 -87.5444,-479.1498 -92.5946,-656.0628 -2.1958,-68.363 5.1217,-93.453 27.0086,-93.453 38.7951,0 57.1692,72.3687 94.8677,373.0273 46.7711,373.0273 39.9661,460.0285 -29.2817,376.4885 z m 2559.1373,-41.6915 c -41.503,-87.0044 -51.241,-89.3641 -130.442,-30.8372 -32.571,24.1486 -100.58,48.454 -151.013,54.1981 -76.931,8.6546 -101.672,1.5753 -152.695,-42.0823 -54.019,-46.4111 -60.825,-65.4463 -59.874,-166.5324 2.195,-221.6781 188.927,-417.8693 357.211,-375.1533 112.658,28.5513 149.475,96.6773 183.443,339.5166 16.397,117.3676 34.257,220.4966 39.671,229.3082 5.125,8.8084 -3.659,27.2928 -20.349,41.1408 -25.108,20.7642 -36.453,12.2696 -65.952,-49.5585 z m -214.984,-84.8784 c 90.182,-46.6511 124.802,-110.2114 124.802,-229.1512 0,-133.6524 -33.378,-183.8386 -109.508,-164.7264 -106.649,26.7482 -222.015,190.5271 -222.599,315.8417 0,36.4212 76.496,109.03 115.143,109.03 17.638,0 59.147,-14.0049 92.162,-30.9941 z m -7365.7984,102.6552 c -56.1442,-39.4087 -119.9009,-160.9453 -232.6303,-444.0608 -89.8863,-225.5331 -101.7445,-291.924 -52.1162,-291.924 50.2152,0 105.4061,113.042 144.7881,296.7174 43.1868,201.6184 96.7001,316.6295 154.2328,331.6526 57.0203,14.9495 73.2758,-12.0327 115.8013,-192.4131 59.1475,-250.4692 135.0543,-477.4946 159.7209,-477.4946 54.3893,0 -49.2618,530.6744 -140.027,716.5588 -45.7549,93.8468 -81.9876,108.5562 -149.7696,60.9637 z m 496.6638,4.7196 c -63.104,-75.9869 -86.7458,-488.2721 -29.1357,-507.3073 30.5241,-10.0729 29.2044,-14.0018 88.3518,259.5116 25.2536,116.9769 40.5558,226.7145 33.9626,243.9406 -14.784,38.4673 -62.7319,40.4332 -93.1787,3.935 z m 1576.1329,-10.6175 c -175.1634,-93.9268 -198.078,-394.2715 -41.2114,-540.3504 65.002,-60.5698 205.1809,-61.2774 259.4185,-1.5722 49.9203,55.2227 50.9508,180.6942 2.1957,255.2658 -44.9417,68.5199 -152.9845,137.3536 -215.7907,137.4274 -69.2477,0 -36.9657,55.7764 48.6778,84.0169 54.02,17.7768 96.8404,17.6199 173.7005,-0.7907 105.9959,-25.4069 145.5238,-17.1461 145.5238,30.3665 0,72.2179 -258.0299,96.8403 -372.4427,35.4797 z m 129.1252,-311.8299 c 43.5532,-50.8968 52.995,-91.0901 33.5989,-143.2452 -38.1366,-102.5814 -205.5444,-12.3558 -205.5444,110.759 0,87.0012 107.8194,107.3779 171.9455,32.4862 z m 1156.9219,323.8626 c 0,-14.3156 37.4038,-61.1206 83.004,-104.0704 45.6774,-42.95 83.0124,-95.6558 83.0124,-117.0508 0,-33.5108 -19.9085,-40.0456 -143.7659,-47.0449 -172.0172,-9.6791 -229.9192,-49.1678 -229.9192,-156.4656 0,-104.3874 50.9452,-184.6262 156.6462,-246.5344 90.5505,-53.0167 95.7438,-53.7273 134.7622,-18.4044 48.3859,43.7345 26.8625,81.3371 -58.7037,102.5752 -81.3978,20.2135 -149.6951,92.1146 -149.6951,157.567 0,69.6952 28.984,81.651 197.4912,81.651 131.6846,0 197.0531,30.1326 197.0531,90.8593 0,40.984 -115.8013,212.0021 -168.5787,248.9741 -57.6101,40.3563 -101.3781,43.7406 -101.3065,7.9439 z m 1910.6589,-31.151 c -44.2165,-40.4332 -71.8839,-94.9482 -94.8673,-186.4352 -41.5806,-165.9047 -33.9682,-345.1006 15.1534,-354.3828 30.4472,-5.5103 34.6212,13.1342 32.0583,146.002 -3.6615,206.338 49.0442,316.937 151.8194,316.937 57.3866,0 76.8603,-12.5834 112.1397,-72.6825 34.6981,-59.0008 42.674,-108.3224 42.674,-262.899 0,-201.9322 10.9797,-236.3875 61.7847,-194.2221 42.4506,35.2398 42.4506,288.6196 0,431.4772 -36.5276,122.8749 -135.1289,233.2402 -208.4731,233.2402 -27.4529,0 -78.0313,-25.6469 -112.3663,-57.0348 z m 543.6534,24.5454 c -68.1454,-47.6694 -128.9767,-181.4017 -128.8305,-283.2724 0,-113.5157 60.7533,-214.048 156.8665,-259.9084 66.8315,-31.7787 79.7861,-32.2524 129.7806,-3.932 30.5241,17.1461 58.5609,46.7219 62.22,65.6832 5.1272,28.6343 -3.6591,31.7017 -51.9703,17.7768 -128.2467,-36.7381 -193.174,39.3318 -193.174,226.4008 0,164.0127 77.8851,207.9871 209.9363,118.4692 90.035,-61.0437 143.0325,-81.1834 143.0325,-54.3582 0,56.0072 -72.2479,149.854 -135.7095,176.3685 -90.6968,37.9164 -134.765,37.2827 -192.1516,-3.1505 z m 497.1016,5.5072 c -63.1043,-75.9899 -86.747,-488.272 -29.1363,-507.3072 30.5241,-10.0729 29.1363,-14.0079 88.2801,259.5115 25.3254,116.977 40.6276,226.7146 34.0395,243.9407 -14.7899,38.4673 -62.8087,40.4332 -93.1841,3.935 z m 2396.4087,-12.5865 c -21.958,-24.2286 -43.553,-99.0401 -55.119,-191.1578 -29.866,-238.1166 -14.495,-221.2043 -252.615,-278.6298 -31.4,-7.8639 -57.093,-26.7423 -57.093,-42.6361 0,-21.238 30.524,-28.9481 114.19,-28.9481 h 114.195 v -105.1719 c 0,-106.8302 26.717,-185.4168 63.021,-185.4168 11.057,0 20.058,37.6796 20.058,83.6999 0,192.0194 78.326,267.7724 248.88,240.4795 51.678,-8.2607 86.156,-3.935 95.598,11.0914 25.62,41.4577 -57.462,79.9219 -172.604,79.9219 -78.249,0 -114.336,8.9653 -122.538,30.3664 -6.588,16.7553 13.398,105.8057 44.071,198.0002 68.73,206.338 51.163,289.1704 -40.044,188.4012 z m 515.837,10.3837 c -192.366,-83.7 -232.115,-387.3461 -70.124,-536.1815 159.066,-146.079 369.076,-5.5042 292.362,195.8742 -29.281,76.7776 -125.832,160.1669 -202.034,174.4025 -78.099,14.7095 -86.666,31.5448 -36.817,72.8426 30.378,25.1731 135.931,30.0495 297.994,13.6079 33.673,-3.1443 53.659,6.2949 58.197,28.7143 14.417,70.7997 -214.915,105.0211 -339.578,50.74 z m 116.463,-339.1228 c 48.313,-61.4373 50.799,-87.478 13.103,-139.0826 -43.411,-59.3914 -133.809,-26.8253 -170.703,61.5174 -36.528,87.3181 -36.528,83.5431 0.73,121.1397 40.044,40.0456 105.046,21.9549 156.575,-43.5745 z m 518.544,341.4056 c 0,-14.9494 27.893,-47.8264 62.002,-72.9994 34.037,-25.1731 76.42,-73.8702 94.133,-108.0885 38.359,-74.184 35.139,-75.9931 -154.011,-87.635 -153.717,-9.4392 -209.714,-55.5334 -209.714,-172.6673 0,-128.3821 201.444,-305.6889 292.141,-257.158 54.752,29.2651 42.454,64.8217 -34.187,98.8833 -107.089,47.6695 -122.465,59.0746 -154.161,115.0079 -53.362,94.0037 -12.37,126.0992 176.484,138.2151 178.393,11.4881 213.601,35.9535 189.518,131.8432 -28.77,114.5341 -262.205,305.6119 -262.205,214.5987 z m -7244.3565,-57.8223 c -48.6005,-79.8419 -93.9831,-255.6597 -77.2953,-299.2433 19.2501,-50.1062 47.3609,-35.5537 67.5644,34.9291 25.0331,87.3181 55.7033,93.8467 84.2493,18.0937 30.965,-82.0478 150.4279,-141.1255 230.068,-113.7496 80.3729,27.5329 150.3535,173.9286 150.3535,314.5004 0,160.0099 -49.4822,147.8941 -81.9819,-19.9797 -57.0231,-295.2283 -181.3902,-293.6531 -240.612,3.1474 -28.105,140.5717 -72.1737,161.4252 -132.346,62.4588 z m 3935.2928,7.0793 c -54.0946,-104.4643 -101.8186,-297.9788 -79.1292,-320.7152 27.7436,-27.6897 66.1722,-2.3597 66.1722,43.1869 0,19.9827 13.687,54.5149 30.4526,76.6176 29.0583,38.3903 30.524,38.4702 31.1859,1.5752 0.7292,-55.7733 132.7089,-179.5128 191.1958,-179.5128 116.6799,0 197.0534,114.931 217.5454,310.8822 12.373,118.0784 10.615,125.0809 -31.4,125.0809 -34.6205,0 -44.5072,-12.6666 -44.5787,-57.1148 0,-139.5502 -73.863,-295.859 -139.2256,-295.859 -35.5742,0 -102.9213,146.7927 -121.9533,265.5726 -16.7599,105.098 -74.075,119.3367 -120.2651,29.9757 z m 1287.2877,0 c -54.094,-104.4643 -101.819,-297.9788 -79.125,-320.7152 27.744,-27.6897 66.173,-2.3597 66.173,43.1869 0,19.9827 13.687,54.5149 30.524,76.6176 28.986,38.3903 30.447,38.4702 31.108,1.5752 0.733,-55.7733 132.709,-179.5128 191.195,-179.5128 116.683,0 197.053,114.931 217.553,310.8822 12.366,118.0784 10.612,125.0809 -31.4,125.0809 -34.627,0 -44.508,-12.6666 -44.581,-57.1148 0,-139.5502 -73.861,-295.859 -139.229,-295.859 -35.574,0 -102.915,146.7927 -121.948,265.5726 -16.766,105.098 -74.081,119.3367 -120.27,29.9757 z m -7433.0624,-664.9513 c -5.8574,-9.1283 -2.1958,-29.5757 7.6125,-45.3927 14.6408,-23.7547 23.4986,-24.0716 50.2925,-1.5691 17.8587,14.8694 27.3721,35.2398 21.0795,45.3866 -14.1284,22.8902 -65.2197,24.0717 -78.9845,1.5752 z m 5813.5928,0 c -5.8573,-9.1283 -2.1958,-29.5757 7.5414,-45.3927 14.7119,-23.7547 23.5697,-24.0716 50.3641,-1.5691 17.8585,14.8694 27.3725,35.2398 21.0799,45.3866 -14.128,22.8902 -65.222,24.0717 -78.9854,1.5752 z"
         id="path10262" /><path
         style="fill:#ffffff;stroke-width:1"
         d="m 2024.4758,-1973.7901 c 2.1955,-2.1917 6.213,-3.2428 8.9366,-2.3358 2.8256,0.9416 1.1129,2.6512 -3.9872,3.985 -6.2734,1.6406 -7.7485,1.1497 -4.9494,-1.6492 z m 30.1787,-7.5435 c 2.1956,-2.1917 6.2131,-3.2428 8.9367,-2.3358 2.8254,0.9416 1.1129,2.6513 -3.9874,3.985 -6.2734,1.6406 -7.7485,1.1498 -4.9493,-1.6492 z m 31.054,-8.3904 c 0,-0.8152 2.633,-2.493 5.8546,-3.7284 3.3574,-1.288 4.8702,-0.6558 3.5498,1.4823 -2.2144,3.5839 -9.4044,5.3009 -9.4044,2.2461 z m 30.1786,-11.3151 c 0,-0.8153 2.6332,-2.4931 5.8547,-3.7286 3.3575,-1.288 4.8701,-0.6557 3.5498,1.4823 -2.2143,3.584 -9.4045,5.3011 -9.4045,2.2463 z m 30.1788,-13.6046 c 3.1121,-2.0109 7.356,-3.6562 9.4309,-3.6562 2.0749,0 1.2259,1.6453 -1.8862,3.6562 -3.1122,2.0109 -7.3561,3.6562 -9.4308,3.6562 -2.0748,0 -1.2261,-1.6453 1.8861,-3.6562 z m 26.4065,-12.7974 c 0,-0.8154 2.6331,-2.4932 5.8546,-3.7286 3.3574,-1.288 4.8701,-0.6557 3.5498,1.4823 -2.2144,3.5839 -9.4044,5.3011 -9.4044,2.2463 z m 26.4064,-15.225 c 0,-1.0373 3.3949,-3.7026 7.5447,-5.9231 4.1495,-2.2204 7.5447,-3.1885 7.5447,-2.1513 0,1.0373 -3.3952,3.7026 -7.5447,5.9231 -4.1498,2.2204 -7.5447,3.1885 -7.5447,2.1513 z m 26.4063,-18.6623 c 0,-0.7832 2.9726,-3.7534 6.6016,-6.6004 5.9829,-4.6917 6.115,-4.5582 1.426,1.4239 -4.9304,6.2829 -8.0276,8.2808 -8.0276,5.1765 z m 22.6341,-22.6302 c 0,-0.7832 2.9726,-3.7535 6.6016,-6.6006 5.983,-4.6915 6.115,-4.5581 1.4259,1.4241 -4.9303,6.2827 -8.0275,8.2807 -8.0275,5.1765 z m 22.6341,-28.3046 c 0,-2.0745 1.6974,-4.8207 3.7723,-6.1027 2.0748,-1.2821 3.7724,-0.6338 3.7724,1.4406 0,2.0744 -1.6976,4.8206 -3.7724,6.1027 -2.0749,1.2821 -3.7723,0.6338 -3.7723,-1.4406 z m 17.217,-27.9529 c 1.4183,-3.7197 3.527,-5.8131 4.6888,-4.6517 1.162,1.1612 0,4.2047 -2.5764,6.7631 -3.7271,3.6973 -4.1571,3.2641 -2.1124,-2.1114 z m -10.6156,-20.251 c 2.5955,-1.0462 6.8394,-1.0462 9.431,0 2.5954,1.0464 0.4714,1.9025 -4.7154,1.9025 -5.187,0 -7.3071,-0.8561 -4.7156,-1.9025 z m 30.179,0 c 2.5953,-1.0462 6.8392,-1.0462 9.4307,0 2.5953,1.0464 0.4717,1.9025 -4.7154,1.9025 -5.187,0 -7.307,-0.8561 -4.7153,-1.9025 z m -64.13,-3.7716 c 2.5954,-1.0463 6.8393,-1.0463 9.4309,0 2.5954,1.0463 0.4716,1.9023 -4.7154,1.9023 -5.187,0 -7.3069,-0.856 -4.7155,-1.9023 z m 98.0809,0 c 2.5955,-1.0463 6.8393,-1.0463 9.4309,0 2.5954,1.0463 0.4716,1.9023 -4.7154,1.9023 -5.187,0 -7.3071,-0.856 -4.7155,-1.9023 z m -128.2595,-3.7717 c 2.5953,-1.0464 6.8392,-1.0464 9.4307,0 2.5954,1.0462 0.4716,1.9024 -4.7154,1.9024 -5.187,0 -7.3069,-0.8562 -4.7153,-1.9024 z m 87.707,-0.8287 c 0,-2.0745 1.6974,-4.8207 3.7722,-6.1028 2.0748,-1.282 3.7725,-0.6336 3.7725,1.4408 0,2.0745 -1.6977,4.8207 -3.7725,6.1028 -2.0748,1.282 -3.7722,0.6338 -3.7722,-1.4408 z m 71.6744,-0.4451 c 3.1121,-2.0109 7.356,-3.6562 9.4309,-3.6562 2.0747,0 1.2259,1.6453 -1.8862,3.6562 -3.1122,2.0109 -7.3561,3.6562 -9.431,3.6562 -2.0747,0 -1.2259,-1.6453 1.8863,-3.6562 z m -190.2846,-7.1917 c -1.1654,-1.881 1.2827,-2.5316 5.4362,-1.4459 8.8083,2.303 9.9211,4.8658 2.1124,4.8658 -2.9915,0 -6.3866,-1.5389 -7.5486,-3.4199 z m 220.4633,-0.352 c 3.1122,-2.0109 7.3561,-3.6562 9.4308,-3.6562 2.0748,0 1.2261,1.6453 -1.8861,3.6562 -3.1121,2.0111 -7.356,3.6562 -9.4308,3.6562 -2.0748,0 -1.226,-1.6451 1.8861,-3.6562 z m -248.9746,-11.3151 c -3.1122,-2.0109 -3.9609,-3.6562 -1.8861,-3.6562 2.0747,0 6.3186,1.6453 9.4308,3.6562 3.1121,2.0109 3.9611,3.6562 1.8862,3.6562 -2.0749,0 -6.3188,-1.6453 -9.4309,-3.6562 z m 275.381,2.3258 c 0,-0.7953 3.3989,-2.3342 7.5485,-3.4201 4.1533,-1.0857 6.6015,-0.435 5.4359,1.446 -2.0296,3.2848 -12.9844,4.9502 -12.9844,1.9741 z m -116.3465,-17.4127 c 0,-5.1861 0.8562,-7.3077 1.9012,-4.7147 1.0488,2.5931 1.0488,6.8363 0,9.4294 -1.045,2.593 -1.9012,0.4714 -1.9012,-4.7147 z m 150.2975,3.7718 c 7.3863,-4.7735 12.381,-4.7735 9.431,0 -1.2827,2.0744 -5.2021,3.7457 -8.7103,3.7139 -5.4963,-0.05 -5.5983,-0.5631 -0.7207,-3.7139 z m -335.7383,-3.7718 c -3.399,-2.1969 -3.8667,-3.6792 -1.1657,-3.714 2.4709,-0.031 5.5416,1.6396 6.8241,3.714 2.8934,4.6828 1.5881,4.6828 -5.6584,0 z m 364.9098,-8.0115 c 2.5615,-2.5776 5.6058,-3.7364 6.7639,-2.5752 1.1619,1.1613 -0.9317,3.2703 -4.6513,4.6866 -5.3757,2.0469 -5.8094,1.6137 -2.1126,-2.1114 z m -391.7991,-13.6759 c -4.6892,-5.9822 -4.557,-6.1156 1.426,-1.424 3.6288,2.847 6.6016,5.8172 6.6016,6.6004 0,3.1043 -3.0972,1.1064 -8.0276,-5.1764 z m 421.9779,-1.411 c 2.5615,-2.5776 5.6058,-3.7364 6.7639,-2.5752 1.1618,1.1613 -0.9319,3.2702 -4.6513,4.6866 -5.3755,2.047 -5.8096,1.6137 -2.1126,-2.1114 z m -205.8755,-7.0753 c 0,-5.1861 0.8564,-7.3077 1.9013,-4.7147 1.0486,2.5931 1.0486,6.8362 0,9.4294 -1.0449,2.5929 -1.9013,0.4713 -1.9013,-4.7147 z m 233.2892,-7.5436 c 3.1122,-2.0109 7.3561,-3.6562 9.4309,-3.6562 2.0747,0 1.226,1.6453 -1.8862,3.6562 -3.1123,2.0111 -7.3562,3.6562 -9.4309,3.6562 -2.0749,0 -1.2261,-1.6451 1.8862,-3.6562 z m -473.1121,-6.1909 c -1.988,-5.1766 -1.4336,-5.41 3.3687,-1.4241 6.5449,5.4317 7.2278,7.615 2.3765,7.615 -1.8522,0 -4.4361,-2.7859 -5.7452,-6.1909 z m 499.5185,-6.5483 c 0,-0.7832 2.9726,-3.7534 6.6015,-6.6004 5.983,-4.6915 6.1151,-4.5582 1.426,1.4241 -4.9305,6.2827 -8.0275,8.2806 -8.0275,5.1763 z m -263.4679,-13.6628 c 0,-5.1861 0.8562,-7.3076 1.9012,-4.7147 1.0488,2.5932 1.0488,6.8363 0,9.4294 -1.045,2.593 -1.9012,0.4714 -1.9012,-4.7147 z m -253.343,-3.7717 c -2.2219,-4.1489 -3.1876,-7.5434 -2.1503,-7.5434 1.0374,0 3.7007,3.3945 5.9226,7.5434 2.2219,4.1489 3.1876,7.5435 2.1503,7.5435 -1.0376,0 -3.7007,-3.3946 -5.9226,-7.5435 z m 546.9896,-3.7716 c 3.1121,-2.0111 7.3561,-3.6562 9.4308,-3.6562 2.0749,0 1.2261,1.6451 -1.8861,3.6562 -3.1123,2.0109 -7.356,3.6562 -9.4309,3.6562 -2.0747,0 -1.2259,-1.6453 1.8862,-3.6562 z m 22.6341,-12.9356 c 0,-1.0374 3.395,-3.7026 7.5446,-5.9231 4.1497,-2.2204 7.5447,-3.1885 7.5447,-2.1512 0,1.0372 -3.395,3.7026 -7.5447,5.923 -4.1496,2.2203 -7.5446,3.1885 -7.5446,2.1513 z m -323.12,-7.9716 c -1.2297,-3.2011 -1.392,-6.663 -0.3772,-7.6931 1.0336,-1.03 2.7802,1.5891 3.8855,5.8203 2.3539,8.9877 -0.2642,10.3756 -3.5235,1.8728 z m -259.2392,-3.755 c -3.6403,-9.4846 -2.5689,-11.9319 1.8787,-4.2858 2.203,3.7858 3.2103,7.6778 2.237,8.649 -0.9695,0.9712 -2.8255,-0.9923 -4.1157,-4.3632 z m 608.7656,-6.994 c 0,-0.8153 2.633,-2.4931 5.8546,-3.7285 3.3574,-1.288 4.8702,-0.6557 3.5498,1.4823 -2.2144,3.5839 -9.4044,5.3009 -9.4044,2.2462 z m -364.1857,-17.6271 c -1.3694,-2.2125 -1.6787,-4.8316 -0.6903,-5.8204 0.9883,-0.9886 2.8028,0.8216 4.0324,4.0227 2.5502,6.6462 0.3775,7.8153 -3.3421,1.7977 z m 397.1295,-3.9889 c 2.5614,-2.5777 5.6057,-3.7366 6.7638,-2.5752 1.162,1.1612 -0.9317,3.2702 -4.6513,4.6866 -5.3755,2.0468 -5.8094,1.6137 -2.1125,-2.1114 z m -643.7654,-5.5039 c 0.1887,-4.3938 1.0752,-5.2875 2.2786,-2.2787 1.0902,2.7227 0.9545,5.9758 -0.3019,7.2291 -1.2523,1.2534 -2.1427,-0.9743 -1.9804,-4.9504 z m 670.1718,-13.3547 c 2.5613,-2.5778 5.6058,-3.7366 6.7639,-2.5753 1.1617,1.1612 -0.9319,3.2703 -4.6515,4.6867 -5.3755,2.0468 -5.8092,1.6136 -2.1124,-2.1114 z m -444.6121,-6.1324 c -4.6889,-5.9823 -4.557,-6.1156 1.4261,-1.4241 3.629,2.847 6.6016,5.8172 6.6016,6.6004 0,3.1044 -3.0972,1.1064 -8.0277,-5.1763 z m 647.6731,-50.9183 c -16.0619,-31.6354 -30.3704,-58.7537 -31.7961,-60.2632 -1.4303,-1.5093 -12.487,4.1154 -24.5698,12.4994 -20.8611,14.4699 -31.1257,17.2908 -21.7287,5.97 5.4924,-6.6199 23.8185,-40.9634 22.3662,-41.9196 -1.392,-0.9186 -98.8882,-40.9243 -115.347,-47.3305 -15.0817,-5.8721 -14.1085,-10.4728 4.2365,-19.9907 13.1014,-6.7977 17.2169,-6.9891 63.8958,-2.9686 27.4438,2.3634 57.7509,5.2873 67.3514,6.4977 l 17.4586,2.2003 21.6383,-29.2565 c 11.9015,-16.0912 42.7362,-53.6485 68.5204,-83.461 37.3688,-43.2075 45.6007,-54.6959 40.568,-56.627 -3.474,-1.3324 -9.1704,-0.6389 -12.6634,1.5414 -8.8008,5.4967 -19.0583,-0.9721 -19.0583,-12.0211 0,-10.7535 -18.8086,-19.4249 -26.2473,-12.0993 -3.3768,3.3268 -5.784,2.568 -10.0464,-3.1693 -3.1871,-4.2925 -9.9887,-7.5434 -15.7762,-7.5434 -5.5979,0 -10.4458,-1.5446 -10.7771,-3.4326 -1.1434,-6.4704 -12.8902,-10.3039 -24.0596,-7.8509 -8.4996,1.8661 -11.1743,1.1024 -11.1743,-3.1904 0,-3.9482 -18.9862,-11.9712 -63.1906,-26.7018 -34.7545,-11.5817 -66.0574,-21.0577 -69.5657,-21.0577 -12.3129,0 -11.8263,-8.6154 1.0903,-19.3276 14.9912,-12.4277 30.1334,-13.4401 101.3175,-6.7735 l 43.2123,4.0471 20.3746,-21.0326 c 11.2078,-11.5681 22.4794,-21.0325 25.0485,-21.0325 4.998,0 17.1599,11.8552 17.1599,16.7251 0,1.6118 -4.4928,8.2672 -9.9815,14.7899 l -9.9816,11.8595 14.6975,2.6116 c 8.0832,1.4362 21.781,2.7092 30.4389,2.8288 14.5163,0.2007 17.1141,-1.3928 33.464,-20.527 18.7905,-21.9914 26.8629,-25.0149 36.9728,-13.8471 8.5932,9.4953 7.9487,12.6865 -5.0807,25.1711 -14.3926,13.7838 -11.4947,15.5513 30.9896,18.9131 l 33.5625,2.6561 62.9789,-61.865 c 34.6376,-34.0259 69.388,-64.8643 77.2204,-68.53 8.0123,-3.7491 20.389,-6.155 28.292,-5.4997 l 14.0519,1.1649 -0.6144,17.9679 c -0.4043,11.8026 -4.0703,23.8649 -10.6871,35.154 -9.9251,16.9312 -73.9648,96.4384 -98.5454,122.3426 l -12.5998,13.2802 6.0431,35.752 c 3.324,19.6637 6.6288,36.4023 7.3415,37.197 0.7129,0.7947 7.4615,-3.9683 14.9987,-10.5845 12.5471,-11.0121 14.3915,-11.5747 21.8194,-6.6519 13.2971,8.8124 11.551,16.4897 -8.5931,37.7881 -20.869,22.0607 -21.0693,22.8334 -14.9159,58.1556 l 4.2131,24.1941 11.9999,-11.6272 c 13.5923,-13.1715 18.0286,-14.1276 26.4598,-5.7001 9.4007,9.4016 7.1782,15.8311 -12.7655,36.9158 l -18.6923,19.7609 7.062,45.0755 c 13.2707,84.6941 13.2107,82.0546 2.1911,99.5057 -8.6951,13.7765 -17.1369,17.5812 -17.1369,7.725 0,-9.8155 -51.7915,-123.5267 -59.5278,-130.6944 -4.9835,-4.6169 -7.9487,-10.1938 -6.5867,-12.3931 3.6552,-5.9134 -1.4975,-19.0182 -7.4772,-19.0182 -7.2646,0 -11.041,-7.4109 -6.2314,-12.2218 5.2919,-5.2888 -1.3201,-17.952 -9.3707,-17.952 -4.41,0 -5.3376,-2.3678 -3.6216,-9.2132 1.272,-5.0673 0.3395,-13.5214 -2.0483,-18.7868 -3.3613,-7.3715 -6.3144,-9.0833 -12.8555,-7.4422 -10.9032,2.7356 -17.9459,-8.0373 -11.7443,-17.9644 3.1884,-5.106 3.0264,-7.9254 -0.6707,-11.5615 -3.984,-3.9163 -13.77,4.3525 -52.7191,44.5546 -26.3086,27.1499 -60.3762,60.4505 -75.7109,74.0014 l -27.8769,24.6381 10.6716,61.7806 c 5.8691,33.9792 10.5287,65.6741 10.351,70.4333 -0.4752,12.6897 -8.8498,30.9502 -14.191,30.9502 -2.5463,0 -17.7718,-25.8835 -33.8312,-57.5187 z m -867.6307,41.3262 c 1.4184,-3.7198 3.5272,-5.813 4.6889,-4.6518 1.162,1.1614 0,4.2047 -2.5765,6.7633 -3.727,3.6973 -4.157,3.264 -2.1124,-2.1115 z m 197.9158,-10.0622 c -3.0518,-1.9299 -4.5682,-4.4908 -3.3686,-5.691 1.2033,-1.2001 4.3306,0.4049 6.9561,3.5666 5.4435,6.5561 4.3986,7.174 -3.5875,2.1244 z m 512.9293,-9.1732 c 0,-0.8152 2.6332,-2.493 5.8546,-3.7284 3.3574,-1.288 4.8702,-0.6558 3.5498,1.4823 -2.2144,3.5839 -9.4044,5.3009 -9.4044,2.2461 z m -694.111,-3.8317 c 0,-0.7182 2.5462,-3.4186 5.6585,-6.0011 3.2631,-2.7063 5.6585,-3.0729 5.6585,-0.8653 0,2.1065 -2.5464,4.8069 -5.6585,6.001 -3.1123,1.194 -5.6585,1.5834 -5.6585,0.8654 z m 152.8062,-5.9579 c -1.3203,-2.138 0.1886,-2.7703 3.5498,-1.4823 6.5337,2.5074 7.7296,5.2109 2.3048,5.2109 -1.954,0 -4.5871,-1.6778 -5.8546,-3.7286 z m -123.5027,-11.9937 c 2.1955,-2.1918 6.2131,-3.2429 8.9367,-2.3359 2.8254,0.9417 1.1129,2.6514 -3.9873,3.985 -6.2735,1.6406 -7.7485,1.1499 -4.9494,-1.6491 z m 95.1837,0.6354 c -3.1121,-2.0109 -3.9609,-3.6562 -1.8862,-3.6562 2.0749,0 6.3188,1.6453 9.431,3.6562 3.1121,2.0109 3.9609,3.6562 1.8862,3.6562 -2.0749,0 -6.3188,-1.6453 -9.431,-3.6562 z m 596.0302,2.2293 c 0,-0.7182 2.5463,-3.4186 5.6584,-6.001 3.2631,-2.7064 5.6585,-3.073 5.6585,-0.8654 0,2.1065 -2.5463,4.8069 -5.6585,6.0011 -3.1121,1.194 -5.6584,1.5833 -5.6584,0.8653 z m -657.0931,-12.3492 c 2.7199,-1.0896 5.9755,-0.9557 7.2278,0.2976 1.2526,1.2533 -0.9732,2.1446 -4.9493,1.9809 -4.3946,-0.181 -5.2888,-1.0748 -2.2785,-2.2787 z m 679.7271,-6.7201 c 0,-0.9643 3.8214,-3.7881 8.4877,-6.2752 7.6956,-4.1003 8.0049,-3.9368 3.3121,1.7532 -4.821,5.8425 -11.7998,8.5168 -11.7998,4.522 z"
         id="path14514" /></g></g></svg>
